<mxfile host="app.diagrams.net" modified="2024-02-04T19:46:27.747Z" agent="Mozilla/5.0 (Macintosh; Intel Mac OS X 10.15; rv:121.0) Gecko/20100101 Firefox/121.0" etag="LES5eHwLWiJDDmtZB-Sv" version="22.1.16" type="device" pages="5">
  <diagram name="classes" id="gjuC59YDHynIKcmXjnvP">
    <mxGraphModel dx="1239" dy="821" grid="1" gridSize="10" guides="1" tooltips="1" connect="1" arrows="1" fold="1" page="1" pageScale="1" pageWidth="850" pageHeight="1100" math="0" shadow="0">
      <root>
        <mxCell id="0" />
        <mxCell id="1" parent="0" />
        <mxCell id="KA5lA_WFw4qpLbytlMwG-1" value="" style="rounded=0;whiteSpace=wrap;html=1;" vertex="1" parent="1">
          <mxGeometry x="30" width="730" height="620" as="geometry" />
        </mxCell>
        <mxCell id="0EjkMdjTfD7gHpdc2nky-1" value="JobDefinition" style="html=1;whiteSpace=wrap;fillColor=#dae8fc;strokeColor=#6c8ebf;" vertex="1" parent="1">
          <mxGeometry x="230" y="180" width="110" height="50" as="geometry" />
        </mxCell>
        <mxCell id="0EjkMdjTfD7gHpdc2nky-2" value="TaskDefinition" style="html=1;whiteSpace=wrap;fillColor=#dae8fc;strokeColor=#6c8ebf;" vertex="1" parent="1">
          <mxGeometry x="410" y="180" width="110" height="50" as="geometry" />
        </mxCell>
        <mxCell id="0EjkMdjTfD7gHpdc2nky-3" value="JobExecution" style="html=1;whiteSpace=wrap;fillColor=#d0cee2;strokeColor=#56517e;" vertex="1" parent="1">
          <mxGeometry x="230" y="370" width="110" height="50" as="geometry" />
        </mxCell>
        <mxCell id="0EjkMdjTfD7gHpdc2nky-4" value="TaskExecution" style="html=1;whiteSpace=wrap;fillColor=#d0cee2;strokeColor=#56517e;" vertex="1" parent="1">
          <mxGeometry x="410" y="370" width="110" height="50" as="geometry" />
        </mxCell>
        <mxCell id="0EjkMdjTfD7gHpdc2nky-5" value="" style="endArrow=open;html=1;endSize=12;startArrow=diamondThin;startSize=14;startFill=0;edgeStyle=orthogonalEdgeStyle;rounded=0;exitX=0;exitY=0.5;exitDx=0;exitDy=0;entryX=1;entryY=0.5;entryDx=0;entryDy=0;" edge="1" parent="1" source="0EjkMdjTfD7gHpdc2nky-2" target="0EjkMdjTfD7gHpdc2nky-1">
          <mxGeometry relative="1" as="geometry">
            <mxPoint x="380" y="440" as="sourcePoint" />
            <mxPoint x="540" y="440" as="targetPoint" />
          </mxGeometry>
        </mxCell>
        <mxCell id="0EjkMdjTfD7gHpdc2nky-6" value="0..n" style="edgeLabel;resizable=0;html=1;align=left;verticalAlign=top;" connectable="0" vertex="1" parent="0EjkMdjTfD7gHpdc2nky-5">
          <mxGeometry x="-1" relative="1" as="geometry" />
        </mxCell>
        <mxCell id="0EjkMdjTfD7gHpdc2nky-7" value="1" style="edgeLabel;resizable=0;html=1;align=right;verticalAlign=top;" connectable="0" vertex="1" parent="0EjkMdjTfD7gHpdc2nky-5">
          <mxGeometry x="1" relative="1" as="geometry" />
        </mxCell>
        <mxCell id="0EjkMdjTfD7gHpdc2nky-11" value="" style="endArrow=open;html=1;endSize=12;startArrow=diamondThin;startSize=14;startFill=0;edgeStyle=orthogonalEdgeStyle;rounded=0;exitX=0;exitY=0.5;exitDx=0;exitDy=0;entryX=1;entryY=0.5;entryDx=0;entryDy=0;" edge="1" parent="1" source="0EjkMdjTfD7gHpdc2nky-4" target="0EjkMdjTfD7gHpdc2nky-3">
          <mxGeometry relative="1" as="geometry">
            <mxPoint x="360" y="460" as="sourcePoint" />
            <mxPoint x="520" y="460" as="targetPoint" />
          </mxGeometry>
        </mxCell>
        <mxCell id="0EjkMdjTfD7gHpdc2nky-13" value="1" style="edgeLabel;resizable=0;html=1;align=right;verticalAlign=top;" connectable="0" vertex="1" parent="0EjkMdjTfD7gHpdc2nky-11">
          <mxGeometry x="1" relative="1" as="geometry" />
        </mxCell>
        <mxCell id="0EjkMdjTfD7gHpdc2nky-16" value="JobDefinitionConfig" style="html=1;whiteSpace=wrap;fillColor=#dae8fc;strokeColor=#6c8ebf;" vertex="1" parent="1">
          <mxGeometry x="230" y="70" width="110" height="50" as="geometry" />
        </mxCell>
        <mxCell id="0EjkMdjTfD7gHpdc2nky-24" value="" style="endArrow=open;html=1;endSize=12;startArrow=diamondThin;startSize=14;startFill=0;edgeStyle=orthogonalEdgeStyle;rounded=0;entryX=0.5;entryY=0;entryDx=0;entryDy=0;" edge="1" parent="1" source="0EjkMdjTfD7gHpdc2nky-16" target="0EjkMdjTfD7gHpdc2nky-1">
          <mxGeometry relative="1" as="geometry">
            <mxPoint x="410" y="140" as="sourcePoint" />
            <mxPoint x="570" y="140" as="targetPoint" />
          </mxGeometry>
        </mxCell>
        <mxCell id="0EjkMdjTfD7gHpdc2nky-25" value="0..n" style="edgeLabel;resizable=0;html=1;align=left;verticalAlign=top;" connectable="0" vertex="1" parent="0EjkMdjTfD7gHpdc2nky-24">
          <mxGeometry x="-1" relative="1" as="geometry" />
        </mxCell>
        <mxCell id="0EjkMdjTfD7gHpdc2nky-26" value="1" style="edgeLabel;resizable=0;html=1;align=right;verticalAlign=top;" connectable="0" vertex="1" parent="0EjkMdjTfD7gHpdc2nky-24">
          <mxGeometry x="1" relative="1" as="geometry" />
        </mxCell>
        <mxCell id="0EjkMdjTfD7gHpdc2nky-27" value="JobDefinitionVariable" style="html=1;whiteSpace=wrap;fillColor=#dae8fc;strokeColor=#6c8ebf;" vertex="1" parent="1">
          <mxGeometry x="60" y="180" width="120" height="50" as="geometry" />
        </mxCell>
        <mxCell id="0EjkMdjTfD7gHpdc2nky-28" value="" style="endArrow=open;html=1;endSize=12;startArrow=diamondThin;startSize=14;startFill=0;edgeStyle=orthogonalEdgeStyle;rounded=0;exitX=1;exitY=0.5;exitDx=0;exitDy=0;entryX=0;entryY=0.5;entryDx=0;entryDy=0;" edge="1" parent="1" source="0EjkMdjTfD7gHpdc2nky-27" target="0EjkMdjTfD7gHpdc2nky-1">
          <mxGeometry relative="1" as="geometry">
            <mxPoint x="110" y="230" as="sourcePoint" />
            <mxPoint x="270" y="230" as="targetPoint" />
          </mxGeometry>
        </mxCell>
        <mxCell id="0EjkMdjTfD7gHpdc2nky-29" value="0..n" style="edgeLabel;resizable=0;html=1;align=left;verticalAlign=top;" connectable="0" vertex="1" parent="0EjkMdjTfD7gHpdc2nky-28">
          <mxGeometry x="-1" relative="1" as="geometry" />
        </mxCell>
        <mxCell id="0EjkMdjTfD7gHpdc2nky-30" value="1" style="edgeLabel;resizable=0;html=1;align=right;verticalAlign=top;" connectable="0" vertex="1" parent="0EjkMdjTfD7gHpdc2nky-28">
          <mxGeometry x="1" relative="1" as="geometry" />
        </mxCell>
        <mxCell id="0EjkMdjTfD7gHpdc2nky-31" value="TaskDefinitionVariable" style="html=1;whiteSpace=wrap;fillColor=#dae8fc;strokeColor=#6c8ebf;" vertex="1" parent="1">
          <mxGeometry x="405" y="70" width="120" height="50" as="geometry" />
        </mxCell>
        <mxCell id="0EjkMdjTfD7gHpdc2nky-32" value="" style="endArrow=open;html=1;endSize=12;startArrow=diamondThin;startSize=14;startFill=0;edgeStyle=orthogonalEdgeStyle;rounded=0;exitX=0.5;exitY=1;exitDx=0;exitDy=0;entryX=0.5;entryY=0;entryDx=0;entryDy=0;" edge="1" parent="1" source="0EjkMdjTfD7gHpdc2nky-31" target="0EjkMdjTfD7gHpdc2nky-2">
          <mxGeometry relative="1" as="geometry">
            <mxPoint x="560" y="150" as="sourcePoint" />
            <mxPoint x="720" y="150" as="targetPoint" />
          </mxGeometry>
        </mxCell>
        <mxCell id="0EjkMdjTfD7gHpdc2nky-33" value="0..n" style="edgeLabel;resizable=0;html=1;align=left;verticalAlign=top;" connectable="0" vertex="1" parent="0EjkMdjTfD7gHpdc2nky-32">
          <mxGeometry x="-1" relative="1" as="geometry" />
        </mxCell>
        <mxCell id="0EjkMdjTfD7gHpdc2nky-34" value="1" style="edgeLabel;resizable=0;html=1;align=right;verticalAlign=top;" connectable="0" vertex="1" parent="0EjkMdjTfD7gHpdc2nky-32">
          <mxGeometry x="1" relative="1" as="geometry" />
        </mxCell>
        <mxCell id="0EjkMdjTfD7gHpdc2nky-35" value="JobExecutionContext" style="html=1;whiteSpace=wrap;fillColor=#d0cee2;strokeColor=#56517e;" vertex="1" parent="1">
          <mxGeometry x="60" y="370" width="130" height="50" as="geometry" />
        </mxCell>
        <mxCell id="0EjkMdjTfD7gHpdc2nky-36" value="" style="endArrow=open;html=1;endSize=12;startArrow=diamondThin;startSize=14;startFill=0;edgeStyle=orthogonalEdgeStyle;rounded=0;exitX=1;exitY=0.5;exitDx=0;exitDy=0;entryX=0;entryY=0.5;entryDx=0;entryDy=0;" edge="1" parent="1" source="0EjkMdjTfD7gHpdc2nky-35" target="0EjkMdjTfD7gHpdc2nky-3">
          <mxGeometry relative="1" as="geometry">
            <mxPoint x="220" y="480" as="sourcePoint" />
            <mxPoint x="380" y="480" as="targetPoint" />
          </mxGeometry>
        </mxCell>
        <mxCell id="0EjkMdjTfD7gHpdc2nky-37" value="0..n" style="edgeLabel;resizable=0;html=1;align=left;verticalAlign=top;" connectable="0" vertex="1" parent="0EjkMdjTfD7gHpdc2nky-36">
          <mxGeometry x="-1" relative="1" as="geometry" />
        </mxCell>
        <mxCell id="0EjkMdjTfD7gHpdc2nky-38" value="1" style="edgeLabel;resizable=0;html=1;align=right;verticalAlign=top;" connectable="0" vertex="1" parent="0EjkMdjTfD7gHpdc2nky-36">
          <mxGeometry x="1" relative="1" as="geometry" />
        </mxCell>
        <mxCell id="0EjkMdjTfD7gHpdc2nky-39" value="TaskExecutionContext" style="html=1;whiteSpace=wrap;fillColor=#d0cee2;strokeColor=#56517e;" vertex="1" parent="1">
          <mxGeometry x="580" y="370" width="130" height="50" as="geometry" />
        </mxCell>
        <mxCell id="0EjkMdjTfD7gHpdc2nky-40" value="" style="endArrow=open;html=1;endSize=12;startArrow=diamondThin;startSize=14;startFill=0;edgeStyle=orthogonalEdgeStyle;rounded=0;exitX=0;exitY=0.5;exitDx=0;exitDy=0;entryX=1;entryY=0.5;entryDx=0;entryDy=0;" edge="1" parent="1" source="0EjkMdjTfD7gHpdc2nky-39" target="0EjkMdjTfD7gHpdc2nky-4">
          <mxGeometry relative="1" as="geometry">
            <mxPoint x="530" y="570" as="sourcePoint" />
            <mxPoint x="690" y="570" as="targetPoint" />
          </mxGeometry>
        </mxCell>
        <mxCell id="0EjkMdjTfD7gHpdc2nky-42" value="1" style="edgeLabel;resizable=0;html=1;align=right;verticalAlign=top;" connectable="0" vertex="1" parent="0EjkMdjTfD7gHpdc2nky-40">
          <mxGeometry x="1" relative="1" as="geometry" />
        </mxCell>
        <mxCell id="0EjkMdjTfD7gHpdc2nky-47" value="" style="edgeStyle=orthogonalEdgeStyle;rounded=0;orthogonalLoop=1;jettySize=auto;html=1;" edge="1" parent="1" source="0EjkMdjTfD7gHpdc2nky-43" target="0EjkMdjTfD7gHpdc2nky-4">
          <mxGeometry relative="1" as="geometry" />
        </mxCell>
        <mxCell id="0EjkMdjTfD7gHpdc2nky-43" value="Artifact" style="html=1;whiteSpace=wrap;fillColor=#d0cee2;strokeColor=#56517e;" vertex="1" parent="1">
          <mxGeometry x="410" y="460" width="110" height="50" as="geometry" />
        </mxCell>
        <mxCell id="0EjkMdjTfD7gHpdc2nky-44" value="" style="endArrow=open;html=1;endSize=12;startArrow=diamondThin;startSize=14;startFill=0;edgeStyle=orthogonalEdgeStyle;rounded=0;exitX=0.5;exitY=0;exitDx=0;exitDy=0;entryX=0.5;entryY=1;entryDx=0;entryDy=0;" edge="1" parent="1" source="0EjkMdjTfD7gHpdc2nky-43" target="0EjkMdjTfD7gHpdc2nky-4">
          <mxGeometry relative="1" as="geometry">
            <mxPoint x="610" y="520" as="sourcePoint" />
            <mxPoint x="770" y="520" as="targetPoint" />
          </mxGeometry>
        </mxCell>
        <mxCell id="0EjkMdjTfD7gHpdc2nky-46" value="1" style="edgeLabel;resizable=0;html=1;align=right;verticalAlign=top;" connectable="0" vertex="1" parent="0EjkMdjTfD7gHpdc2nky-44">
          <mxGeometry x="1" relative="1" as="geometry" />
        </mxCell>
        <mxCell id="0EjkMdjTfD7gHpdc2nky-59" style="edgeStyle=orthogonalEdgeStyle;rounded=0;orthogonalLoop=1;jettySize=auto;html=1;entryX=0.5;entryY=0;entryDx=0;entryDy=0;" edge="1" parent="1" source="0EjkMdjTfD7gHpdc2nky-48" target="0EjkMdjTfD7gHpdc2nky-3">
          <mxGeometry relative="1" as="geometry" />
        </mxCell>
        <mxCell id="0EjkMdjTfD7gHpdc2nky-60" style="edgeStyle=orthogonalEdgeStyle;rounded=0;orthogonalLoop=1;jettySize=auto;html=1;entryX=0.5;entryY=1;entryDx=0;entryDy=0;" edge="1" parent="1" source="0EjkMdjTfD7gHpdc2nky-48" target="0EjkMdjTfD7gHpdc2nky-1">
          <mxGeometry relative="1" as="geometry" />
        </mxCell>
        <mxCell id="0EjkMdjTfD7gHpdc2nky-48" value="JobRequest" style="html=1;whiteSpace=wrap;fillColor=#b0e3e6;strokeColor=#0e8088;" vertex="1" parent="1">
          <mxGeometry x="230" y="280" width="110" height="50" as="geometry" />
        </mxCell>
        <mxCell id="0EjkMdjTfD7gHpdc2nky-50" value="JobRequestParam" style="html=1;whiteSpace=wrap;fillColor=#b0e3e6;strokeColor=#0e8088;" vertex="1" parent="1">
          <mxGeometry x="60" y="280" width="110" height="50" as="geometry" />
        </mxCell>
        <mxCell id="0EjkMdjTfD7gHpdc2nky-54" value="" style="endArrow=open;html=1;endSize=12;startArrow=diamondThin;startSize=14;startFill=0;edgeStyle=orthogonalEdgeStyle;rounded=0;exitX=1;exitY=0.5;exitDx=0;exitDy=0;entryX=0;entryY=0.5;entryDx=0;entryDy=0;" edge="1" parent="1" source="0EjkMdjTfD7gHpdc2nky-50" target="0EjkMdjTfD7gHpdc2nky-48">
          <mxGeometry relative="1" as="geometry">
            <mxPoint x="340" y="640" as="sourcePoint" />
            <mxPoint x="500" y="640" as="targetPoint" />
          </mxGeometry>
        </mxCell>
        <mxCell id="0EjkMdjTfD7gHpdc2nky-55" value="0..n" style="edgeLabel;resizable=0;html=1;align=left;verticalAlign=top;" connectable="0" vertex="1" parent="0EjkMdjTfD7gHpdc2nky-54">
          <mxGeometry x="-1" relative="1" as="geometry" />
        </mxCell>
        <mxCell id="0EjkMdjTfD7gHpdc2nky-56" value="1" style="edgeLabel;resizable=0;html=1;align=right;verticalAlign=top;" connectable="0" vertex="1" parent="0EjkMdjTfD7gHpdc2nky-54">
          <mxGeometry x="1" relative="1" as="geometry" />
        </mxCell>
        <mxCell id="0EjkMdjTfD7gHpdc2nky-64" value="&lt;h1&gt;Domain Class Diagram&lt;br&gt;&lt;/h1&gt;" style="text;html=1;strokeColor=none;fillColor=none;spacing=5;spacingTop=-20;whiteSpace=wrap;overflow=hidden;rounded=0;" vertex="1" parent="1">
          <mxGeometry x="260" y="10" width="280" height="40" as="geometry" />
        </mxCell>
        <mxCell id="0EjkMdjTfD7gHpdc2nky-66" style="edgeStyle=orthogonalEdgeStyle;rounded=0;orthogonalLoop=1;jettySize=auto;html=1;entryX=1;entryY=0.5;entryDx=0;entryDy=0;" edge="1" parent="1" source="0EjkMdjTfD7gHpdc2nky-65" target="0EjkMdjTfD7gHpdc2nky-48">
          <mxGeometry relative="1" as="geometry" />
        </mxCell>
        <mxCell id="0EjkMdjTfD7gHpdc2nky-68" style="edgeStyle=orthogonalEdgeStyle;rounded=0;orthogonalLoop=1;jettySize=auto;html=1;entryX=0.5;entryY=1;entryDx=0;entryDy=0;" edge="1" parent="1" source="0EjkMdjTfD7gHpdc2nky-65" target="0EjkMdjTfD7gHpdc2nky-2">
          <mxGeometry relative="1" as="geometry" />
        </mxCell>
        <mxCell id="0EjkMdjTfD7gHpdc2nky-69" style="edgeStyle=orthogonalEdgeStyle;rounded=0;orthogonalLoop=1;jettySize=auto;html=1;entryX=0.5;entryY=0;entryDx=0;entryDy=0;" edge="1" parent="1" source="0EjkMdjTfD7gHpdc2nky-65" target="0EjkMdjTfD7gHpdc2nky-4">
          <mxGeometry relative="1" as="geometry" />
        </mxCell>
        <mxCell id="0EjkMdjTfD7gHpdc2nky-71" style="edgeStyle=orthogonalEdgeStyle;rounded=0;orthogonalLoop=1;jettySize=auto;html=1;entryX=0;entryY=0.5;entryDx=0;entryDy=0;" edge="1" parent="1" source="0EjkMdjTfD7gHpdc2nky-65" target="0EjkMdjTfD7gHpdc2nky-70">
          <mxGeometry relative="1" as="geometry" />
        </mxCell>
        <mxCell id="0EjkMdjTfD7gHpdc2nky-65" value="TaskRequest" style="html=1;whiteSpace=wrap;fillColor=#b0e3e6;strokeColor=#0e8088;" vertex="1" parent="1">
          <mxGeometry x="410" y="280" width="110" height="50" as="geometry" />
        </mxCell>
        <mxCell id="0EjkMdjTfD7gHpdc2nky-70" value="ExecutorOptions" style="html=1;whiteSpace=wrap;fillColor=#b0e3e6;strokeColor=#0e8088;" vertex="1" parent="1">
          <mxGeometry x="570" y="280" width="110" height="50" as="geometry" />
        </mxCell>
        <mxCell id="0EjkMdjTfD7gHpdc2nky-72" value="VariableValue" style="html=1;whiteSpace=wrap;fillColor=#b0e3e6;strokeColor=#0e8088;" vertex="1" parent="1">
          <mxGeometry x="570" y="220" width="110" height="50" as="geometry" />
        </mxCell>
        <mxCell id="0EjkMdjTfD7gHpdc2nky-76" value="" style="endArrow=open;html=1;endSize=12;startArrow=diamondThin;startSize=14;startFill=0;edgeStyle=orthogonalEdgeStyle;rounded=0;exitX=0;exitY=0.5;exitDx=0;exitDy=0;entryX=0.5;entryY=0;entryDx=0;entryDy=0;" edge="1" parent="1" source="0EjkMdjTfD7gHpdc2nky-72" target="0EjkMdjTfD7gHpdc2nky-65">
          <mxGeometry relative="1" as="geometry">
            <mxPoint x="630" y="120" as="sourcePoint" />
            <mxPoint x="790" y="120" as="targetPoint" />
            <Array as="points">
              <mxPoint x="465" y="245" />
            </Array>
          </mxGeometry>
        </mxCell>
        <mxCell id="0EjkMdjTfD7gHpdc2nky-78" value="1" style="edgeLabel;resizable=0;html=1;align=right;verticalAlign=top;" connectable="0" vertex="1" parent="0EjkMdjTfD7gHpdc2nky-76">
          <mxGeometry x="1" relative="1" as="geometry" />
        </mxCell>
        <mxCell id="txL0SqTBw3M9Tg7tpEZT-1" value="AntRegistration" style="html=1;whiteSpace=wrap;fillColor=#fad7ac;strokeColor=#b46504;" vertex="1" parent="1">
          <mxGeometry x="70" y="460" width="110" height="50" as="geometry" />
        </mxCell>
        <mxCell id="KA5lA_WFw4qpLbytlMwG-2" value="&lt;div&gt;TaskRequest&lt;/div&gt;" style="html=1;whiteSpace=wrap;fillColor=#fad7ac;strokeColor=#b46504;" vertex="1" parent="1">
          <mxGeometry x="210" y="460" width="110" height="50" as="geometry" />
        </mxCell>
        <mxCell id="KA5lA_WFw4qpLbytlMwG-3" value="TaskResponse" style="html=1;whiteSpace=wrap;fillColor=#fad7ac;strokeColor=#b46504;" vertex="1" parent="1">
          <mxGeometry x="210" y="530" width="110" height="50" as="geometry" />
        </mxCell>
        <mxCell id="6CLt9pWo3QPdoHTs_SlH-1" value="SystemConfig" style="html=1;whiteSpace=wrap;fillColor=#bac8d3;strokeColor=#23445d;" vertex="1" parent="1">
          <mxGeometry x="580" y="450" width="110" height="50" as="geometry" />
        </mxCell>
        <mxCell id="6CLt9pWo3QPdoHTs_SlH-2" value="User" style="html=1;whiteSpace=wrap;fillColor=#bac8d3;strokeColor=#23445d;" vertex="1" parent="1">
          <mxGeometry x="450" y="530" width="110" height="50" as="geometry" />
        </mxCell>
        <mxCell id="6CLt9pWo3QPdoHTs_SlH-3" value="Organization" style="html=1;whiteSpace=wrap;fillColor=#bac8d3;strokeColor=#23445d;" vertex="1" parent="1">
          <mxGeometry x="580" y="530" width="110" height="50" as="geometry" />
        </mxCell>
        <mxCell id="6CLt9pWo3QPdoHTs_SlH-4" value="AntConfig" style="html=1;whiteSpace=wrap;fillColor=#fad7ac;strokeColor=#b46504;" vertex="1" parent="1">
          <mxGeometry x="70" y="530" width="110" height="50" as="geometry" />
        </mxCell>
        <mxCell id="6CLt9pWo3QPdoHTs_SlH-5" value="JobResource" style="html=1;whiteSpace=wrap;fillColor=#dae8fc;strokeColor=#6c8ebf;" vertex="1" parent="1">
          <mxGeometry x="60" y="100" width="120" height="50" as="geometry" />
        </mxCell>
        <mxCell id="6CLt9pWo3QPdoHTs_SlH-7" value="" style="endArrow=open;html=1;endSize=12;startArrow=diamondThin;startSize=14;startFill=0;edgeStyle=orthogonalEdgeStyle;rounded=0;exitX=0.583;exitY=1;exitDx=0;exitDy=0;exitPerimeter=0;" edge="1" parent="1" source="6CLt9pWo3QPdoHTs_SlH-5" target="0EjkMdjTfD7gHpdc2nky-1">
          <mxGeometry relative="1" as="geometry">
            <mxPoint x="200" y="130" as="sourcePoint" />
            <mxPoint x="360" y="130" as="targetPoint" />
            <Array as="points">
              <mxPoint x="285" y="150" />
            </Array>
          </mxGeometry>
        </mxCell>
        <mxCell id="6CLt9pWo3QPdoHTs_SlH-8" value="0..n" style="edgeLabel;resizable=0;html=1;align=left;verticalAlign=top;" connectable="0" vertex="1" parent="6CLt9pWo3QPdoHTs_SlH-7">
          <mxGeometry x="-1" relative="1" as="geometry" />
        </mxCell>
        <mxCell id="6CLt9pWo3QPdoHTs_SlH-9" value="1" style="edgeLabel;resizable=0;html=1;align=right;verticalAlign=top;" connectable="0" vertex="1" parent="6CLt9pWo3QPdoHTs_SlH-7">
          <mxGeometry x="1" relative="1" as="geometry" />
        </mxCell>
      </root>
    </mxGraphModel>
  </diagram>
  <diagram id="v82Qqv0FyuCo3HLFaPwT" name="physical">
    <mxGraphModel dx="1239" dy="821" grid="1" gridSize="10" guides="1" tooltips="1" connect="1" arrows="1" fold="1" page="1" pageScale="1" pageWidth="850" pageHeight="1100" math="0" shadow="0">
      <root>
        <mxCell id="0" />
        <mxCell id="1" parent="0" />
        <mxCell id="dfjTAz5s3abYrHGSsMf1-1" value="" style="rounded=0;whiteSpace=wrap;html=1;fillColor=#d0cee2;strokeColor=#56517e;" vertex="1" parent="1">
          <mxGeometry x="60" y="510" width="690" height="320" as="geometry" />
        </mxCell>
        <mxCell id="PpHKafM-vrrCt_1Guitm-1" value="" style="rounded=0;whiteSpace=wrap;html=1;fillColor=#b1ddf0;strokeColor=#10739e;" vertex="1" parent="1">
          <mxGeometry x="60" y="70" width="690" height="440" as="geometry" />
        </mxCell>
        <mxCell id="AcyBeAE9oMmAsaTE-JI--25" style="edgeStyle=orthogonalEdgeStyle;rounded=0;orthogonalLoop=1;jettySize=auto;html=1;" edge="1" parent="1" source="AcyBeAE9oMmAsaTE-JI--19" target="AcyBeAE9oMmAsaTE-JI--23">
          <mxGeometry relative="1" as="geometry" />
        </mxCell>
        <mxCell id="AcyBeAE9oMmAsaTE-JI--37" style="edgeStyle=orthogonalEdgeStyle;rounded=0;orthogonalLoop=1;jettySize=auto;html=1;entryX=0.5;entryY=0;entryDx=0;entryDy=0;" edge="1" parent="1">
          <mxGeometry relative="1" as="geometry">
            <mxPoint x="390" y="692" as="sourcePoint" />
            <mxPoint x="429" y="747" as="targetPoint" />
            <Array as="points">
              <mxPoint x="390" y="712" />
              <mxPoint x="429" y="712" />
            </Array>
          </mxGeometry>
        </mxCell>
        <mxCell id="AcyBeAE9oMmAsaTE-JI--19" value="Ant Worker" style="verticalAlign=top;align=left;spacingTop=8;spacingLeft=2;spacingRight=12;shape=cube;size=10;direction=south;fontStyle=4;html=1;whiteSpace=wrap;fillColor=#f5f5f5;fontColor=#333333;strokeColor=#666666;" vertex="1" parent="1">
          <mxGeometry x="260" y="530" width="260" height="160" as="geometry" />
        </mxCell>
        <mxCell id="AcyBeAE9oMmAsaTE-JI--22" style="edgeStyle=orthogonalEdgeStyle;rounded=0;orthogonalLoop=1;jettySize=auto;html=1;" edge="1" parent="1" source="AcyBeAE9oMmAsaTE-JI--1" target="AcyBeAE9oMmAsaTE-JI--21">
          <mxGeometry relative="1" as="geometry" />
        </mxCell>
        <mxCell id="AcyBeAE9oMmAsaTE-JI--1" value="Queen Server" style="verticalAlign=top;align=left;spacingTop=8;spacingLeft=2;spacingRight=12;shape=cube;size=10;direction=south;fontStyle=4;html=1;whiteSpace=wrap;fillColor=#f5f5f5;fontColor=#333333;strokeColor=#666666;" vertex="1" parent="1">
          <mxGeometry x="200" y="240" width="370" height="230" as="geometry" />
        </mxCell>
        <mxCell id="AcyBeAE9oMmAsaTE-JI--2" value="API Controller" style="shape=module;align=left;spacingLeft=20;align=center;verticalAlign=top;whiteSpace=wrap;html=1;fillColor=#dae8fc;strokeColor=#6c8ebf;" vertex="1" parent="1">
          <mxGeometry x="220" y="280" width="100" height="50" as="geometry" />
        </mxCell>
        <mxCell id="AcyBeAE9oMmAsaTE-JI--3" value="Job Scheduler" style="shape=module;align=left;spacingLeft=20;align=center;verticalAlign=top;whiteSpace=wrap;html=1;fillColor=#dae8fc;strokeColor=#6c8ebf;" vertex="1" parent="1">
          <mxGeometry x="335" y="280" width="100" height="50" as="geometry" />
        </mxCell>
        <mxCell id="AcyBeAE9oMmAsaTE-JI--4" value="Job Launcher" style="shape=module;align=left;spacingLeft=20;align=center;verticalAlign=top;whiteSpace=wrap;html=1;fillColor=#dae8fc;strokeColor=#6c8ebf;" vertex="1" parent="1">
          <mxGeometry x="450" y="280" width="100" height="50" as="geometry" />
        </mxCell>
        <mxCell id="AcyBeAE9oMmAsaTE-JI--5" value="Job Supervisor" style="shape=module;align=left;spacingLeft=20;align=center;verticalAlign=top;whiteSpace=wrap;html=1;fillColor=#dae8fc;strokeColor=#6c8ebf;" vertex="1" parent="1">
          <mxGeometry x="340" y="343" width="100" height="50" as="geometry" />
        </mxCell>
        <mxCell id="AcyBeAE9oMmAsaTE-JI--6" value="&lt;div&gt;Task&lt;/div&gt;&lt;div&gt;Supervisor&lt;/div&gt;" style="shape=module;align=left;spacingLeft=20;align=center;verticalAlign=top;whiteSpace=wrap;html=1;fillColor=#dae8fc;strokeColor=#6c8ebf;" vertex="1" parent="1">
          <mxGeometry x="450" y="343" width="100" height="50" as="geometry" />
        </mxCell>
        <mxCell id="AcyBeAE9oMmAsaTE-JI--7" value="AuthN / AuthZ / Security" style="shape=module;align=left;spacingLeft=20;align=center;verticalAlign=top;whiteSpace=wrap;html=1;fillColor=#dae8fc;strokeColor=#6c8ebf;" vertex="1" parent="1">
          <mxGeometry x="450" y="410" width="100" height="50" as="geometry" />
        </mxCell>
        <mxCell id="AcyBeAE9oMmAsaTE-JI--8" value="User" style="shape=umlActor;verticalLabelPosition=bottom;verticalAlign=top;html=1;fillColor=#f8cecc;strokeColor=#b85450;" vertex="1" parent="1">
          <mxGeometry x="375" y="138" width="30" height="60" as="geometry" />
        </mxCell>
        <mxCell id="AcyBeAE9oMmAsaTE-JI--9" value="UI Controller" style="shape=module;align=left;spacingLeft=20;align=center;verticalAlign=top;whiteSpace=wrap;html=1;fillColor=#dae8fc;strokeColor=#6c8ebf;" vertex="1" parent="1">
          <mxGeometry x="220" y="343" width="100" height="50" as="geometry" />
        </mxCell>
        <mxCell id="AcyBeAE9oMmAsaTE-JI--10" value="Tasklets" style="shape=module;align=left;spacingLeft=20;align=center;verticalAlign=top;whiteSpace=wrap;html=1;fillColor=#dae8fc;strokeColor=#6c8ebf;" vertex="1" parent="1">
          <mxGeometry x="220" y="410" width="100" height="50" as="geometry" />
        </mxCell>
        <mxCell id="AcyBeAE9oMmAsaTE-JI--11" value="&lt;div&gt;Notification &amp;amp; Event Gateway&lt;br&gt;&lt;/div&gt;" style="shape=module;align=left;spacingLeft=20;align=center;verticalAlign=top;whiteSpace=wrap;html=1;fillColor=#dae8fc;strokeColor=#6c8ebf;" vertex="1" parent="1">
          <mxGeometry x="340" y="410" width="100" height="50" as="geometry" />
        </mxCell>
        <mxCell id="AcyBeAE9oMmAsaTE-JI--13" style="edgeStyle=orthogonalEdgeStyle;rounded=0;orthogonalLoop=1;jettySize=auto;html=1;entryX=0;entryY=0;entryDx=0;entryDy=180;entryPerimeter=0;" edge="1" parent="1" source="AcyBeAE9oMmAsaTE-JI--8" target="AcyBeAE9oMmAsaTE-JI--1">
          <mxGeometry relative="1" as="geometry" />
        </mxCell>
        <mxCell id="AcyBeAE9oMmAsaTE-JI--28" style="edgeStyle=orthogonalEdgeStyle;rounded=0;orthogonalLoop=1;jettySize=auto;html=1;" edge="1" parent="1" source="AcyBeAE9oMmAsaTE-JI--14" target="AcyBeAE9oMmAsaTE-JI--26">
          <mxGeometry relative="1" as="geometry" />
        </mxCell>
        <mxCell id="AcyBeAE9oMmAsaTE-JI--14" value="Ant Worker" style="verticalAlign=top;align=left;spacingTop=8;spacingLeft=2;spacingRight=12;shape=cube;size=10;direction=south;fontStyle=4;html=1;whiteSpace=wrap;fillColor=#f5f5f5;strokeColor=#666666;fontColor=#333333;" vertex="1" parent="1">
          <mxGeometry x="250" y="520" width="260" height="160" as="geometry" />
        </mxCell>
        <mxCell id="AcyBeAE9oMmAsaTE-JI--15" value="Request Controller" style="shape=module;align=left;spacingLeft=20;align=center;verticalAlign=top;whiteSpace=wrap;html=1;fillColor=#ffe6cc;strokeColor=#d79b00;" vertex="1" parent="1">
          <mxGeometry x="260" y="560" width="100" height="50" as="geometry" />
        </mxCell>
        <mxCell id="AcyBeAE9oMmAsaTE-JI--16" value="Request Executor" style="shape=module;align=left;spacingLeft=20;align=center;verticalAlign=top;whiteSpace=wrap;html=1;fillColor=#ffe6cc;strokeColor=#d79b00;" vertex="1" parent="1">
          <mxGeometry x="375" y="560" width="100" height="50" as="geometry" />
        </mxCell>
        <mxCell id="AcyBeAE9oMmAsaTE-JI--17" value="Registry" style="shape=module;align=left;spacingLeft=20;align=center;verticalAlign=top;whiteSpace=wrap;html=1;fillColor=#ffe6cc;strokeColor=#d79b00;" vertex="1" parent="1">
          <mxGeometry x="260" y="620" width="100" height="50" as="geometry" />
        </mxCell>
        <mxCell id="AcyBeAE9oMmAsaTE-JI--18" value="Artifacts Manager" style="shape=module;align=left;spacingLeft=20;align=center;verticalAlign=top;whiteSpace=wrap;html=1;fillColor=#ffe6cc;strokeColor=#d79b00;" vertex="1" parent="1">
          <mxGeometry x="375" y="620" width="100" height="50" as="geometry" />
        </mxCell>
        <mxCell id="AcyBeAE9oMmAsaTE-JI--20" style="edgeStyle=orthogonalEdgeStyle;rounded=0;orthogonalLoop=1;jettySize=auto;html=1;entryX=0;entryY=0;entryDx=0;entryDy=125;entryPerimeter=0;" edge="1" parent="1" source="AcyBeAE9oMmAsaTE-JI--1" target="AcyBeAE9oMmAsaTE-JI--14">
          <mxGeometry relative="1" as="geometry" />
        </mxCell>
        <mxCell id="AcyBeAE9oMmAsaTE-JI--21" value="Database" style="shape=cylinder3;whiteSpace=wrap;html=1;boundedLbl=1;backgroundOutline=1;size=15;fillColor=#e1d5e7;strokeColor=#9673a6;" vertex="1" parent="1">
          <mxGeometry x="650" y="315" width="60" height="80" as="geometry" />
        </mxCell>
        <mxCell id="AcyBeAE9oMmAsaTE-JI--23" value="Messaging Middleware" style="strokeWidth=1;outlineConnect=0;dashed=0;align=center;html=1;fontSize=8;shape=mxgraph.eip.messageChannel;verticalLabelPosition=bottom;labelBackgroundColor=#ffffff;verticalAlign=top;" vertex="1" parent="1">
          <mxGeometry x="630" y="410" width="100" height="20" as="geometry" />
        </mxCell>
        <mxCell id="AcyBeAE9oMmAsaTE-JI--24" style="edgeStyle=orthogonalEdgeStyle;rounded=0;orthogonalLoop=1;jettySize=auto;html=1;entryX=0;entryY=0.5;entryDx=2.7;entryDy=0;entryPerimeter=0;" edge="1" parent="1" source="AcyBeAE9oMmAsaTE-JI--1" target="AcyBeAE9oMmAsaTE-JI--23">
          <mxGeometry relative="1" as="geometry" />
        </mxCell>
        <mxCell id="AcyBeAE9oMmAsaTE-JI--26" value="Object Store (Artifacts)" style="sketch=0;outlineConnect=0;strokeColor=#9673a6;fillColor=#e1d5e7;dashed=0;verticalLabelPosition=bottom;verticalAlign=top;align=center;html=1;fontSize=12;fontStyle=0;aspect=fixed;shape=mxgraph.aws4.resourceIcon;resIcon=mxgraph.aws4.parameter_store;" vertex="1" parent="1">
          <mxGeometry x="110" y="420" width="60" height="60" as="geometry" />
        </mxCell>
        <mxCell id="AcyBeAE9oMmAsaTE-JI--27" style="edgeStyle=orthogonalEdgeStyle;rounded=0;orthogonalLoop=1;jettySize=auto;html=1;entryX=0.317;entryY=0.017;entryDx=0;entryDy=0;entryPerimeter=0;" edge="1" parent="1" source="AcyBeAE9oMmAsaTE-JI--1" target="AcyBeAE9oMmAsaTE-JI--26">
          <mxGeometry relative="1" as="geometry" />
        </mxCell>
        <mxCell id="AcyBeAE9oMmAsaTE-JI--29" value="Docker Executor" style="image;sketch=0;aspect=fixed;html=1;points=[];align=center;fontSize=12;image=img/lib/mscae/Docker.svg;" vertex="1" parent="1">
          <mxGeometry x="200" y="740" width="50" height="41" as="geometry" />
        </mxCell>
        <mxCell id="AcyBeAE9oMmAsaTE-JI--30" style="edgeStyle=orthogonalEdgeStyle;rounded=0;orthogonalLoop=1;jettySize=auto;html=1;entryX=0.5;entryY=0;entryDx=0;entryDy=0;entryPerimeter=0;" edge="1" parent="1" source="AcyBeAE9oMmAsaTE-JI--19" target="AcyBeAE9oMmAsaTE-JI--29">
          <mxGeometry relative="1" as="geometry" />
        </mxCell>
        <mxCell id="AcyBeAE9oMmAsaTE-JI--31" value="" style="aspect=fixed;sketch=0;html=1;dashed=0;whitespace=wrap;fillColor=#2875E2;strokeColor=#ffffff;points=[[0.005,0.63,0],[0.1,0.2,0],[0.9,0.2,0],[0.5,0,0],[0.995,0.63,0],[0.72,0.99,0],[0.5,1,0],[0.28,0.99,0]];shape=mxgraph.kubernetes.icon2;prIcon=api" vertex="1" parent="1">
          <mxGeometry x="310" y="737" width="50" height="48" as="geometry" />
        </mxCell>
        <mxCell id="AcyBeAE9oMmAsaTE-JI--32" value="Kubernetes Executor" style="text;html=1;strokeColor=none;fillColor=none;align=center;verticalAlign=middle;whiteSpace=wrap;rounded=0;" vertex="1" parent="1">
          <mxGeometry x="300" y="791" width="60" height="30" as="geometry" />
        </mxCell>
        <mxCell id="AcyBeAE9oMmAsaTE-JI--33" style="edgeStyle=orthogonalEdgeStyle;rounded=0;orthogonalLoop=1;jettySize=auto;html=1;entryX=0.5;entryY=0;entryDx=0;entryDy=0;entryPerimeter=0;" edge="1" parent="1" source="AcyBeAE9oMmAsaTE-JI--19" target="AcyBeAE9oMmAsaTE-JI--31">
          <mxGeometry relative="1" as="geometry" />
        </mxCell>
        <mxCell id="AcyBeAE9oMmAsaTE-JI--36" value="Shell Executor" style="sketch=0;html=1;verticalAlign=top;labelPosition=center;verticalLabelPosition=bottom;align=center;spacingTop=-6;fontSize=11;fontStyle=1;fontColor=#999999;shape=image;aspect=fixed;imageAspect=0;image=data:image/svg+xml,PHN2ZyB4bWxucz0iaHR0cDovL3d3dy53My5vcmcvMjAwMC9zdmciIHhtbG5zOnY9Imh0dHBzOi8vdmVjdGEuaW8vbmFubyIgd2lkdGg9IjM3NS44NTAyODQ2NDQwODg3MyIgaGVpZ2h0PSIzNTMuODA1Nzc3NDY3NzY5NyIgdmlld0JveD0iMC4yNTU5OTk1NjUxMjQ1MTE3IDAuNDI2MDAwMDI4ODQ4NjQ4MDcgOTkuNDQzNjU2OTIxMzg2NzIgOTMuNjExMDAwMDYxMDM1MTYiPiYjeGE7PHN0eWxlIHR5cGU9InRleHQvY3NzIj4mI3hhOwkuc3Qwe2ZpbGw6I2FlY2JmYTt9JiN4YTsJLnN0MXtmaWxsOiNmZmY7fSYjeGE7CS5zdDJ7ZmlsbDojNDI4NWY0O30mI3hhOwkuc3Qze2ZpbGw6IzY2OWRmNjt9JiN4YTs8L3N0eWxlPiYjeGE7CTxwYXRoIGNsYXNzPSJzdDAiIGQ9Ik04LjU0NCA3MS45MjhjLTQuODE1IDAtOC4yODgtMy44ODktOC4yODgtOC4zMjdWNy45ODNDLjI1NyA0LjY1IDQuMDcyLjQyNiA3LjQ5NS40MjZoODMuOTUyYzQuNzA1IDAgOC4yNTIgMy4zNzkgOC4yNTIgOC4xNzR2NTEuNDk1Yy4wNDcgNy41OTUtMi40NyAxMS44MzQtOS4wMTIgMTEuODM0eiIvPiYjeGE7CTxwYXRoIGNsYXNzPSJzdDEiIGQ9Ik0yOC4wNDYgNTcuMTV2LTkuOTIybDMxLjg4Mi0xMy44OTEtMzEuODgyLTEzLjY5MlY5LjI2MWw0NS44MDYgMTguOTg0djkuNzl6bTI1LjIzNSAzLjY3MXYtMTAuNTVoMjAuMDc1djEwLjU1eiIvPiYjeGE7CTxwYXRoIGNsYXNzPSJzdDIiIGQ9Ik00MC4wMyA4My41MjRWNzEuOTI4aDIwLjI5NXYxMS41OTZ6Ii8+JiN4YTsJPHBhdGggY2xhc3M9InN0MyIgZD0iTTY5Ljg3MyA4My41MjR2MTAuNTEzSDMwLjFWODMuNTI0eiIvPiYjeGE7PC9zdmc+;" vertex="1" parent="1">
          <mxGeometry x="408" y="745" width="42" height="40" as="geometry" />
        </mxCell>
        <mxCell id="AcyBeAE9oMmAsaTE-JI--38" value="HTTP Executor" style="outlineConnect=0;dashed=0;verticalLabelPosition=bottom;verticalAlign=top;align=center;html=1;shape=mxgraph.aws3.http_protocol;fillColor=#5294CF;gradientColor=none;" vertex="1" parent="1">
          <mxGeometry x="510" y="734" width="50" height="51" as="geometry" />
        </mxCell>
        <mxCell id="AcyBeAE9oMmAsaTE-JI--39" style="edgeStyle=orthogonalEdgeStyle;rounded=0;orthogonalLoop=1;jettySize=auto;html=1;entryX=0.5;entryY=0;entryDx=0;entryDy=0;entryPerimeter=0;" edge="1" parent="1" source="AcyBeAE9oMmAsaTE-JI--19" target="AcyBeAE9oMmAsaTE-JI--38">
          <mxGeometry relative="1" as="geometry" />
        </mxCell>
        <mxCell id="Pa-fXrstypgOLeOMuiyZ-1" value="&lt;h1&gt;Physical Architecture Diagram&lt;br&gt;&lt;/h1&gt;" style="text;html=1;strokeColor=none;fillColor=none;spacing=5;spacingTop=-20;whiteSpace=wrap;overflow=hidden;rounded=0;" vertex="1" parent="1">
          <mxGeometry x="210" y="97" width="370" height="40" as="geometry" />
        </mxCell>
        <mxCell id="2k2FEyXfG45YrgTTurtF-1" value="Messaging Executor" style="outlineConnect=0;dashed=0;verticalLabelPosition=bottom;verticalAlign=top;align=center;html=1;shape=mxgraph.aws3.topic_2;fillColor=#D9A741;gradientColor=none;" vertex="1" parent="1">
          <mxGeometry x="610" y="746.5" width="60" height="37" as="geometry" />
        </mxCell>
        <mxCell id="2k2FEyXfG45YrgTTurtF-2" style="edgeStyle=orthogonalEdgeStyle;rounded=0;orthogonalLoop=1;jettySize=auto;html=1;entryX=0.5;entryY=0;entryDx=0;entryDy=0;entryPerimeter=0;" edge="1" parent="1" source="AcyBeAE9oMmAsaTE-JI--19" target="2k2FEyXfG45YrgTTurtF-1">
          <mxGeometry relative="1" as="geometry">
            <Array as="points">
              <mxPoint x="390" y="710" />
              <mxPoint x="640" y="710" />
            </Array>
          </mxGeometry>
        </mxCell>
      </root>
    </mxGraphModel>
  </diagram>
  <diagram id="LVOyrWgOMZ-t1WwqhTFl" name="components">
    <mxGraphModel dx="1239" dy="821" grid="1" gridSize="10" guides="1" tooltips="1" connect="1" arrows="1" fold="1" page="1" pageScale="1" pageWidth="850" pageHeight="1100" math="0" shadow="0">
      <root>
        <mxCell id="0" />
        <mxCell id="1" parent="0" />
        <mxCell id="sFz8vuOJbeZ3VAMKLwao-9" value="" style="rounded=0;whiteSpace=wrap;html=1;fillColor=#bac8d3;strokeColor=#23445d;" vertex="1" parent="1">
          <mxGeometry x="20" y="60" width="690" height="220" as="geometry" />
        </mxCell>
        <mxCell id="NadXKUROyGbcRSle4J1W-7" value="" style="rounded=0;whiteSpace=wrap;html=1;fillColor=#b1ddf0;strokeColor=#10739e;" vertex="1" parent="1">
          <mxGeometry x="20" y="280" width="690" height="360" as="geometry" />
        </mxCell>
        <mxCell id="NadXKUROyGbcRSle4J1W-6" value="" style="rounded=0;whiteSpace=wrap;html=1;fillColor=#d0cee2;strokeColor=#56517e;" vertex="1" parent="1">
          <mxGeometry x="20" y="640" width="690" height="270" as="geometry" />
        </mxCell>
        <mxCell id="C67Q7cAnnSUc1JfwZTw3-11" style="edgeStyle=orthogonalEdgeStyle;rounded=0;orthogonalLoop=1;jettySize=auto;html=1;entryX=0.5;entryY=0;entryDx=0;entryDy=0;" edge="1" parent="1" source="C67Q7cAnnSUc1JfwZTw3-1" target="C67Q7cAnnSUc1JfwZTw3-4">
          <mxGeometry relative="1" as="geometry" />
        </mxCell>
        <mxCell id="sFz8vuOJbeZ3VAMKLwao-15" style="edgeStyle=orthogonalEdgeStyle;rounded=0;orthogonalLoop=1;jettySize=auto;html=1;" edge="1" parent="1" source="C67Q7cAnnSUc1JfwZTw3-1" target="C67Q7cAnnSUc1JfwZTw3-44">
          <mxGeometry relative="1" as="geometry">
            <Array as="points">
              <mxPoint x="235" y="380" />
              <mxPoint x="601" y="380" />
            </Array>
          </mxGeometry>
        </mxCell>
        <mxCell id="C67Q7cAnnSUc1JfwZTw3-1" value="API Controller" style="shape=module;align=left;spacingLeft=20;align=center;verticalAlign=top;whiteSpace=wrap;html=1;fillColor=#d5e8d4;strokeColor=#82b366;" vertex="1" parent="1">
          <mxGeometry x="185" y="310" width="100" height="50" as="geometry" />
        </mxCell>
        <mxCell id="C67Q7cAnnSUc1JfwZTw3-6" style="edgeStyle=orthogonalEdgeStyle;rounded=0;orthogonalLoop=1;jettySize=auto;html=1;" edge="1" parent="1" source="C67Q7cAnnSUc1JfwZTw3-2" target="C67Q7cAnnSUc1JfwZTw3-4">
          <mxGeometry relative="1" as="geometry" />
        </mxCell>
        <mxCell id="C67Q7cAnnSUc1JfwZTw3-7" style="edgeStyle=orthogonalEdgeStyle;rounded=0;orthogonalLoop=1;jettySize=auto;html=1;" edge="1" parent="1" source="C67Q7cAnnSUc1JfwZTw3-2" target="C67Q7cAnnSUc1JfwZTw3-5">
          <mxGeometry relative="1" as="geometry" />
        </mxCell>
        <mxCell id="C67Q7cAnnSUc1JfwZTw3-2" value="UI Controller" style="shape=module;align=left;spacingLeft=20;align=center;verticalAlign=top;whiteSpace=wrap;html=1;fillColor=#d5e8d4;strokeColor=#82b366;" vertex="1" parent="1">
          <mxGeometry x="340" y="310" width="100" height="50" as="geometry" />
        </mxCell>
        <mxCell id="C67Q7cAnnSUc1JfwZTw3-10" style="edgeStyle=orthogonalEdgeStyle;rounded=0;orthogonalLoop=1;jettySize=auto;html=1;" edge="1" parent="1" source="C67Q7cAnnSUc1JfwZTw3-3" target="C67Q7cAnnSUc1JfwZTw3-5">
          <mxGeometry relative="1" as="geometry" />
        </mxCell>
        <mxCell id="C67Q7cAnnSUc1JfwZTw3-3" value="Events Gateway" style="shape=module;align=left;spacingLeft=20;align=center;verticalAlign=top;whiteSpace=wrap;html=1;fillColor=#d5e8d4;strokeColor=#82b366;" vertex="1" parent="1">
          <mxGeometry x="460" y="310" width="100" height="50" as="geometry" />
        </mxCell>
        <mxCell id="C67Q7cAnnSUc1JfwZTw3-4" value="Database" style="image;aspect=fixed;perimeter=ellipsePerimeter;html=1;align=center;shadow=0;dashed=0;spacingTop=3;image=img/lib/active_directory/database.svg;" vertex="1" parent="1">
          <mxGeometry x="304" y="400" width="50" height="37" as="geometry" />
        </mxCell>
        <mxCell id="C67Q7cAnnSUc1JfwZTw3-5" value="Messaging" style="sketch=0;outlineConnect=0;fontColor=#232F3E;gradientColor=none;fillColor=#E7157B;strokeColor=none;dashed=0;verticalLabelPosition=bottom;verticalAlign=top;align=center;html=1;fontSize=12;fontStyle=0;aspect=fixed;pointerEvents=1;shape=mxgraph.aws4.queue;" vertex="1" parent="1">
          <mxGeometry x="430" y="400" width="58.09" height="35" as="geometry" />
        </mxCell>
        <mxCell id="C67Q7cAnnSUc1JfwZTw3-14" style="edgeStyle=orthogonalEdgeStyle;rounded=0;orthogonalLoop=1;jettySize=auto;html=1;entryX=0;entryY=0.5;entryDx=0;entryDy=0;" edge="1" parent="1" source="C67Q7cAnnSUc1JfwZTw3-12" target="C67Q7cAnnSUc1JfwZTw3-4">
          <mxGeometry relative="1" as="geometry">
            <Array as="points">
              <mxPoint x="130" y="419" />
              <mxPoint x="240" y="419" />
            </Array>
          </mxGeometry>
        </mxCell>
        <mxCell id="C67Q7cAnnSUc1JfwZTw3-12" value="Job Scheduler" style="shape=module;align=left;spacingLeft=20;align=center;verticalAlign=top;whiteSpace=wrap;html=1;fillColor=#dae8fc;strokeColor=#6c8ebf;" vertex="1" parent="1">
          <mxGeometry x="80" y="490" width="100" height="50" as="geometry" />
        </mxCell>
        <mxCell id="C67Q7cAnnSUc1JfwZTw3-15" value="launch queue" style="verticalLabelPosition=bottom;html=1;verticalAlign=top;align=center;strokeColor=none;fillColor=#00BEF2;shape=mxgraph.azure.queue_generic;pointerEvents=1;" vertex="1" parent="1">
          <mxGeometry x="210" y="506.5" width="50" height="15" as="geometry" />
        </mxCell>
        <mxCell id="C67Q7cAnnSUc1JfwZTw3-16" style="edgeStyle=orthogonalEdgeStyle;rounded=0;orthogonalLoop=1;jettySize=auto;html=1;entryX=0.16;entryY=0.567;entryDx=0;entryDy=0;entryPerimeter=0;" edge="1" parent="1" source="C67Q7cAnnSUc1JfwZTw3-12" target="C67Q7cAnnSUc1JfwZTw3-15">
          <mxGeometry relative="1" as="geometry" />
        </mxCell>
        <mxCell id="C67Q7cAnnSUc1JfwZTw3-19" style="edgeStyle=orthogonalEdgeStyle;rounded=0;orthogonalLoop=1;jettySize=auto;html=1;entryX=0.75;entryY=1;entryDx=0;entryDy=0;" edge="1" parent="1" source="C67Q7cAnnSUc1JfwZTw3-17" target="C67Q7cAnnSUc1JfwZTw3-4">
          <mxGeometry relative="1" as="geometry" />
        </mxCell>
        <mxCell id="C67Q7cAnnSUc1JfwZTw3-29" style="edgeStyle=orthogonalEdgeStyle;rounded=0;orthogonalLoop=1;jettySize=auto;html=1;" edge="1" parent="1" source="C67Q7cAnnSUc1JfwZTw3-17" target="C67Q7cAnnSUc1JfwZTw3-27">
          <mxGeometry relative="1" as="geometry" />
        </mxCell>
        <mxCell id="qpeomJFHjv0md6LilM7Z-13" style="edgeStyle=orthogonalEdgeStyle;rounded=0;orthogonalLoop=1;jettySize=auto;html=1;entryX=0.5;entryY=0;entryDx=0;entryDy=0;" edge="1" parent="1" source="C67Q7cAnnSUc1JfwZTw3-17" target="C67Q7cAnnSUc1JfwZTw3-20">
          <mxGeometry relative="1" as="geometry" />
        </mxCell>
        <mxCell id="C67Q7cAnnSUc1JfwZTw3-17" value="Job Launcher" style="shape=module;align=left;spacingLeft=20;align=center;verticalAlign=top;whiteSpace=wrap;html=1;fillColor=#dae8fc;strokeColor=#6c8ebf;" vertex="1" parent="1">
          <mxGeometry x="290" y="490" width="100" height="50" as="geometry" />
        </mxCell>
        <mxCell id="C67Q7cAnnSUc1JfwZTw3-18" style="edgeStyle=orthogonalEdgeStyle;rounded=0;orthogonalLoop=1;jettySize=auto;html=1;entryX=1;entryY=0.51;entryDx=0;entryDy=0;entryPerimeter=0;" edge="1" parent="1" source="C67Q7cAnnSUc1JfwZTw3-17" target="C67Q7cAnnSUc1JfwZTw3-15">
          <mxGeometry relative="1" as="geometry" />
        </mxCell>
        <mxCell id="C67Q7cAnnSUc1JfwZTw3-20" value="Resource Manager" style="shape=module;align=left;spacingLeft=20;align=center;verticalAlign=top;whiteSpace=wrap;html=1;fillColor=#dae8fc;strokeColor=#6c8ebf;" vertex="1" parent="1">
          <mxGeometry x="401.00000000000006" y="570" width="100" height="50" as="geometry" />
        </mxCell>
        <mxCell id="C67Q7cAnnSUc1JfwZTw3-26" style="edgeStyle=orthogonalEdgeStyle;rounded=0;orthogonalLoop=1;jettySize=auto;html=1;" edge="1" parent="1" source="C67Q7cAnnSUc1JfwZTw3-24" target="C67Q7cAnnSUc1JfwZTw3-5">
          <mxGeometry relative="1" as="geometry">
            <Array as="points">
              <mxPoint x="538" y="418" />
            </Array>
          </mxGeometry>
        </mxCell>
        <mxCell id="C67Q7cAnnSUc1JfwZTw3-24" value="Logs Stramer" style="shape=module;align=left;spacingLeft=20;align=center;verticalAlign=top;whiteSpace=wrap;html=1;fillColor=#dae8fc;strokeColor=#6c8ebf;" vertex="1" parent="1">
          <mxGeometry x="488.09000000000003" y="490" width="100" height="50" as="geometry" />
        </mxCell>
        <mxCell id="C67Q7cAnnSUc1JfwZTw3-31" style="edgeStyle=orthogonalEdgeStyle;rounded=0;orthogonalLoop=1;jettySize=auto;html=1;entryX=1;entryY=0.5;entryDx=0;entryDy=0;" edge="1" parent="1" source="C67Q7cAnnSUc1JfwZTw3-27" target="C67Q7cAnnSUc1JfwZTw3-30">
          <mxGeometry relative="1" as="geometry" />
        </mxCell>
        <mxCell id="C67Q7cAnnSUc1JfwZTw3-27" value="Job Supervisor" style="shape=module;align=left;spacingLeft=20;align=center;verticalAlign=top;whiteSpace=wrap;html=1;fillColor=#dae8fc;strokeColor=#6c8ebf;" vertex="1" parent="1">
          <mxGeometry x="290" y="570" width="100" height="50" as="geometry" />
        </mxCell>
        <mxCell id="C67Q7cAnnSUc1JfwZTw3-30" value="Task Supervisor" style="shape=module;align=left;spacingLeft=20;align=center;verticalAlign=top;whiteSpace=wrap;html=1;fillColor=#dae8fc;strokeColor=#6c8ebf;" vertex="1" parent="1">
          <mxGeometry x="160" y="570" width="100" height="50" as="geometry" />
        </mxCell>
        <mxCell id="C67Q7cAnnSUc1JfwZTw3-32" value="" style="verticalLabelPosition=bottom;html=1;verticalAlign=top;align=center;strokeColor=none;fillColor=#00BEF2;shape=mxgraph.azure.queue_generic;pointerEvents=1;" vertex="1" parent="1">
          <mxGeometry x="538.09" y="587" width="50" height="15" as="geometry" />
        </mxCell>
        <mxCell id="C67Q7cAnnSUc1JfwZTw3-33" style="edgeStyle=orthogonalEdgeStyle;rounded=0;orthogonalLoop=1;jettySize=auto;html=1;entryX=0;entryY=0.5;entryDx=0;entryDy=0;entryPerimeter=0;" edge="1" parent="1" source="C67Q7cAnnSUc1JfwZTw3-20" target="C67Q7cAnnSUc1JfwZTw3-32">
          <mxGeometry relative="1" as="geometry" />
        </mxCell>
        <mxCell id="C67Q7cAnnSUc1JfwZTw3-35" style="edgeStyle=orthogonalEdgeStyle;rounded=0;orthogonalLoop=1;jettySize=auto;html=1;" edge="1" parent="1" source="C67Q7cAnnSUc1JfwZTw3-34" target="C67Q7cAnnSUc1JfwZTw3-32">
          <mxGeometry relative="1" as="geometry" />
        </mxCell>
        <mxCell id="C67Q7cAnnSUc1JfwZTw3-36" value="register / health" style="edgeLabel;html=1;align=center;verticalAlign=middle;resizable=0;points=[];" vertex="1" connectable="0" parent="C67Q7cAnnSUc1JfwZTw3-35">
          <mxGeometry x="-0.2414" relative="1" as="geometry">
            <mxPoint as="offset" />
          </mxGeometry>
        </mxCell>
        <mxCell id="C67Q7cAnnSUc1JfwZTw3-47" style="edgeStyle=orthogonalEdgeStyle;rounded=0;orthogonalLoop=1;jettySize=auto;html=1;" edge="1" parent="1" source="C67Q7cAnnSUc1JfwZTw3-34" target="C67Q7cAnnSUc1JfwZTw3-44">
          <mxGeometry relative="1" as="geometry">
            <Array as="points">
              <mxPoint x="680" y="685" />
              <mxPoint x="680" y="414" />
            </Array>
          </mxGeometry>
        </mxCell>
        <mxCell id="qpeomJFHjv0md6LilM7Z-9" value="&lt;div&gt;publish&lt;br&gt;artifacts&lt;br&gt;&lt;/div&gt;" style="edgeLabel;html=1;align=center;verticalAlign=middle;resizable=0;points=[];" vertex="1" connectable="0" parent="C67Q7cAnnSUc1JfwZTw3-47">
          <mxGeometry x="-0.8489" y="-1" relative="1" as="geometry">
            <mxPoint as="offset" />
          </mxGeometry>
        </mxCell>
        <mxCell id="qpeomJFHjv0md6LilM7Z-18" style="edgeStyle=orthogonalEdgeStyle;rounded=0;orthogonalLoop=1;jettySize=auto;html=1;entryX=1;entryY=0.5;entryDx=0;entryDy=0;" edge="1" parent="1" source="C67Q7cAnnSUc1JfwZTw3-34" target="qpeomJFHjv0md6LilM7Z-15">
          <mxGeometry relative="1" as="geometry" />
        </mxCell>
        <mxCell id="C67Q7cAnnSUc1JfwZTw3-34" value="Ant Worker" style="shape=module;align=left;spacingLeft=20;align=center;verticalAlign=top;whiteSpace=wrap;html=1;fillColor=#ffe6cc;strokeColor=#d79b00;" vertex="1" parent="1">
          <mxGeometry x="513.09" y="650" width="100" height="50" as="geometry" />
        </mxCell>
        <mxCell id="qpeomJFHjv0md6LilM7Z-5" style="edgeStyle=orthogonalEdgeStyle;rounded=0;orthogonalLoop=1;jettySize=auto;html=1;" edge="1" parent="1" source="C67Q7cAnnSUc1JfwZTw3-37" target="qpeomJFHjv0md6LilM7Z-1">
          <mxGeometry relative="1" as="geometry" />
        </mxCell>
        <mxCell id="qpeomJFHjv0md6LilM7Z-7" style="edgeStyle=orthogonalEdgeStyle;rounded=0;orthogonalLoop=1;jettySize=auto;html=1;entryX=0.5;entryY=0;entryDx=0;entryDy=0;" edge="1" parent="1" source="C67Q7cAnnSUc1JfwZTw3-37" target="qpeomJFHjv0md6LilM7Z-3">
          <mxGeometry relative="1" as="geometry" />
        </mxCell>
        <mxCell id="2voWNjKwJM0PCbqwC2e3-2" style="edgeStyle=orthogonalEdgeStyle;rounded=0;orthogonalLoop=1;jettySize=auto;html=1;" edge="1" parent="1" source="C67Q7cAnnSUc1JfwZTw3-37" target="2voWNjKwJM0PCbqwC2e3-1">
          <mxGeometry relative="1" as="geometry" />
        </mxCell>
        <mxCell id="C67Q7cAnnSUc1JfwZTw3-37" value="Worker Executor" style="shape=module;align=left;spacingLeft=20;align=center;verticalAlign=top;whiteSpace=wrap;html=1;fillColor=#ffe6cc;strokeColor=#d79b00;" vertex="1" parent="1">
          <mxGeometry x="340" y="730" width="100" height="50" as="geometry" />
        </mxCell>
        <mxCell id="C67Q7cAnnSUc1JfwZTw3-41" value="" style="edgeStyle=orthogonalEdgeStyle;rounded=0;orthogonalLoop=1;jettySize=auto;html=1;" edge="1" parent="1" source="C67Q7cAnnSUc1JfwZTw3-40" target="C67Q7cAnnSUc1JfwZTw3-24">
          <mxGeometry relative="1" as="geometry" />
        </mxCell>
        <mxCell id="C67Q7cAnnSUc1JfwZTw3-40" value="logs queue" style="verticalLabelPosition=bottom;html=1;verticalAlign=top;align=center;strokeColor=none;fillColor=#00BEF2;shape=mxgraph.azure.queue_generic;pointerEvents=1;" vertex="1" parent="1">
          <mxGeometry x="613.09" y="506.5" width="50" height="15" as="geometry" />
        </mxCell>
        <mxCell id="C67Q7cAnnSUc1JfwZTw3-44" value="Artifacts Storage" style="image;aspect=fixed;perimeter=ellipsePerimeter;html=1;align=center;shadow=0;dashed=0;fontColor=#4277BB;labelBackgroundColor=default;fontSize=12;spacingTop=3;image=img/lib/ibm/devops/artifact_management.svg;" vertex="1" parent="1">
          <mxGeometry x="580" y="400" width="42" height="42" as="geometry" />
        </mxCell>
        <mxCell id="qpeomJFHjv0md6LilM7Z-1" value="Docker Executor" style="image;sketch=0;aspect=fixed;html=1;points=[];align=center;fontSize=12;image=img/lib/mscae/Docker.svg;" vertex="1" parent="1">
          <mxGeometry x="160" y="790" width="50" height="41" as="geometry" />
        </mxCell>
        <mxCell id="qpeomJFHjv0md6LilM7Z-2" value="" style="aspect=fixed;sketch=0;html=1;dashed=0;whitespace=wrap;fillColor=#2875E2;strokeColor=#ffffff;points=[[0.005,0.63,0],[0.1,0.2,0],[0.9,0.2,0],[0.5,0,0],[0.995,0.63,0],[0.72,0.99,0],[0.5,1,0],[0.28,0.99,0]];shape=mxgraph.kubernetes.icon2;prIcon=api" vertex="1" parent="1">
          <mxGeometry x="270" y="786.5" width="50" height="48" as="geometry" />
        </mxCell>
        <mxCell id="qpeomJFHjv0md6LilM7Z-3" value="Shell Executor" style="sketch=0;html=1;verticalAlign=top;labelPosition=center;verticalLabelPosition=bottom;align=center;spacingTop=-6;fontSize=11;fontStyle=1;fontColor=#999999;shape=image;aspect=fixed;imageAspect=0;image=data:image/svg+xml,PHN2ZyB4bWxucz0iaHR0cDovL3d3dy53My5vcmcvMjAwMC9zdmciIHhtbG5zOnY9Imh0dHBzOi8vdmVjdGEuaW8vbmFubyIgd2lkdGg9IjM3NS44NTAyODQ2NDQwODg3MyIgaGVpZ2h0PSIzNTMuODA1Nzc3NDY3NzY5NyIgdmlld0JveD0iMC4yNTU5OTk1NjUxMjQ1MTE3IDAuNDI2MDAwMDI4ODQ4NjQ4MDcgOTkuNDQzNjU2OTIxMzg2NzIgOTMuNjExMDAwMDYxMDM1MTYiPiYjeGE7PHN0eWxlIHR5cGU9InRleHQvY3NzIj4mI3hhOwkuc3Qwe2ZpbGw6I2FlY2JmYTt9JiN4YTsJLnN0MXtmaWxsOiNmZmY7fSYjeGE7CS5zdDJ7ZmlsbDojNDI4NWY0O30mI3hhOwkuc3Qze2ZpbGw6IzY2OWRmNjt9JiN4YTs8L3N0eWxlPiYjeGE7CTxwYXRoIGNsYXNzPSJzdDAiIGQ9Ik04LjU0NCA3MS45MjhjLTQuODE1IDAtOC4yODgtMy44ODktOC4yODgtOC4zMjdWNy45ODNDLjI1NyA0LjY1IDQuMDcyLjQyNiA3LjQ5NS40MjZoODMuOTUyYzQuNzA1IDAgOC4yNTIgMy4zNzkgOC4yNTIgOC4xNzR2NTEuNDk1Yy4wNDcgNy41OTUtMi40NyAxMS44MzQtOS4wMTIgMTEuODM0eiIvPiYjeGE7CTxwYXRoIGNsYXNzPSJzdDEiIGQ9Ik0yOC4wNDYgNTcuMTV2LTkuOTIybDMxLjg4Mi0xMy44OTEtMzEuODgyLTEzLjY5MlY5LjI2MWw0NS44MDYgMTguOTg0djkuNzl6bTI1LjIzNSAzLjY3MXYtMTAuNTVoMjAuMDc1djEwLjU1eiIvPiYjeGE7CTxwYXRoIGNsYXNzPSJzdDIiIGQ9Ik00MC4wMyA4My41MjRWNzEuOTI4aDIwLjI5NXYxMS41OTZ6Ii8+JiN4YTsJPHBhdGggY2xhc3M9InN0MyIgZD0iTTY5Ljg3MyA4My41MjR2MTAuNTEzSDMwLjFWODMuNTI0eiIvPiYjeGE7PC9zdmc+;" vertex="1" parent="1">
          <mxGeometry x="369" y="800" width="42" height="40" as="geometry" />
        </mxCell>
        <mxCell id="qpeomJFHjv0md6LilM7Z-4" value="HTTP Executor" style="outlineConnect=0;dashed=0;verticalLabelPosition=bottom;verticalAlign=top;align=center;html=1;shape=mxgraph.aws3.http_protocol;fillColor=#5294CF;gradientColor=none;" vertex="1" parent="1">
          <mxGeometry x="470" y="780" width="50" height="51" as="geometry" />
        </mxCell>
        <mxCell id="qpeomJFHjv0md6LilM7Z-6" style="edgeStyle=orthogonalEdgeStyle;rounded=0;orthogonalLoop=1;jettySize=auto;html=1;entryX=0.5;entryY=0;entryDx=0;entryDy=0;entryPerimeter=0;" edge="1" parent="1" source="C67Q7cAnnSUc1JfwZTw3-37" target="qpeomJFHjv0md6LilM7Z-2">
          <mxGeometry relative="1" as="geometry" />
        </mxCell>
        <mxCell id="qpeomJFHjv0md6LilM7Z-8" style="edgeStyle=orthogonalEdgeStyle;rounded=0;orthogonalLoop=1;jettySize=auto;html=1;entryX=0.5;entryY=0;entryDx=0;entryDy=0;entryPerimeter=0;" edge="1" parent="1" source="C67Q7cAnnSUc1JfwZTw3-37" target="qpeomJFHjv0md6LilM7Z-4">
          <mxGeometry relative="1" as="geometry" />
        </mxCell>
        <mxCell id="qpeomJFHjv0md6LilM7Z-10" style="edgeStyle=orthogonalEdgeStyle;rounded=0;orthogonalLoop=1;jettySize=auto;html=1;entryX=0.5;entryY=1;entryDx=0;entryDy=0;entryPerimeter=0;" edge="1" parent="1" source="C67Q7cAnnSUc1JfwZTw3-34" target="C67Q7cAnnSUc1JfwZTw3-40">
          <mxGeometry relative="1" as="geometry">
            <Array as="points">
              <mxPoint x="638" y="670" />
            </Array>
          </mxGeometry>
        </mxCell>
        <mxCell id="qpeomJFHjv0md6LilM7Z-11" value="publish logs" style="edgeLabel;html=1;align=center;verticalAlign=middle;resizable=0;points=[];" vertex="1" connectable="0" parent="qpeomJFHjv0md6LilM7Z-10">
          <mxGeometry x="0.1413" y="-1" relative="1" as="geometry">
            <mxPoint as="offset" />
          </mxGeometry>
        </mxCell>
        <mxCell id="qpeomJFHjv0md6LilM7Z-12" value="task queue" style="verticalLabelPosition=bottom;html=1;verticalAlign=top;align=center;strokeColor=none;fillColor=#00BEF2;shape=mxgraph.azure.queue_generic;pointerEvents=1;" vertex="1" parent="1">
          <mxGeometry x="185.00000000000006" y="667.5" width="50" height="15" as="geometry" />
        </mxCell>
        <mxCell id="qpeomJFHjv0md6LilM7Z-20" style="edgeStyle=orthogonalEdgeStyle;rounded=0;orthogonalLoop=1;jettySize=auto;html=1;entryX=0.5;entryY=0;entryDx=0;entryDy=0;" edge="1" parent="1" source="qpeomJFHjv0md6LilM7Z-15" target="C67Q7cAnnSUc1JfwZTw3-37">
          <mxGeometry relative="1" as="geometry" />
        </mxCell>
        <mxCell id="qpeomJFHjv0md6LilM7Z-15" value="Ant Request Controller" style="shape=module;align=left;spacingLeft=20;align=center;verticalAlign=top;whiteSpace=wrap;html=1;fillColor=#ffe6cc;strokeColor=#d79b00;" vertex="1" parent="1">
          <mxGeometry x="340" y="650" width="100" height="50" as="geometry" />
        </mxCell>
        <mxCell id="qpeomJFHjv0md6LilM7Z-16" style="edgeStyle=orthogonalEdgeStyle;rounded=0;orthogonalLoop=1;jettySize=auto;html=1;entryX=0.5;entryY=0;entryDx=0;entryDy=0;entryPerimeter=0;" edge="1" parent="1" source="C67Q7cAnnSUc1JfwZTw3-30" target="qpeomJFHjv0md6LilM7Z-12">
          <mxGeometry relative="1" as="geometry" />
        </mxCell>
        <mxCell id="qpeomJFHjv0md6LilM7Z-17" style="edgeStyle=orthogonalEdgeStyle;rounded=0;orthogonalLoop=1;jettySize=auto;html=1;entryX=1;entryY=0.51;entryDx=0;entryDy=0;entryPerimeter=0;" edge="1" parent="1" source="qpeomJFHjv0md6LilM7Z-15" target="qpeomJFHjv0md6LilM7Z-12">
          <mxGeometry relative="1" as="geometry" />
        </mxCell>
        <mxCell id="MNnMFNjYWYrpZ39GZ6JY-1" value="Kubernetes Executor" style="text;html=1;strokeColor=none;fillColor=none;align=center;verticalAlign=middle;whiteSpace=wrap;rounded=0;" vertex="1" parent="1">
          <mxGeometry x="265" y="840" width="60" height="30" as="geometry" />
        </mxCell>
        <mxCell id="NadXKUROyGbcRSle4J1W-1" value="&lt;h1&gt;Component Architecture Diagram&lt;br&gt;&lt;/h1&gt;" style="text;html=1;strokeColor=none;fillColor=none;spacing=5;spacingTop=-20;whiteSpace=wrap;overflow=hidden;rounded=0;" vertex="1" parent="1">
          <mxGeometry x="170" y="80" width="400" height="40" as="geometry" />
        </mxCell>
        <mxCell id="NadXKUROyGbcRSle4J1W-2" value="&lt;font size=&quot;1&quot;&gt;&lt;b style=&quot;font-size: 16px;&quot;&gt;External Interface&lt;/b&gt;&lt;/font&gt;" style="text;html=1;strokeColor=none;fillColor=none;align=center;verticalAlign=middle;whiteSpace=wrap;rounded=0;" vertex="1" parent="1">
          <mxGeometry x="110" y="216.95" width="60" height="30" as="geometry" />
        </mxCell>
        <mxCell id="NadXKUROyGbcRSle4J1W-3" value="&lt;font size=&quot;1&quot;&gt;&lt;b style=&quot;font-size: 16px;&quot;&gt;Queen Server&lt;/b&gt;&lt;/font&gt;" style="text;html=1;strokeColor=none;fillColor=none;align=center;verticalAlign=middle;whiteSpace=wrap;rounded=0;" vertex="1" parent="1">
          <mxGeometry x="100" y="310" width="70" height="30" as="geometry" />
        </mxCell>
        <mxCell id="NadXKUROyGbcRSle4J1W-4" value="&lt;font size=&quot;1&quot;&gt;&lt;b style=&quot;font-size: 16px;&quot;&gt;Ant Worker&lt;/b&gt;&lt;/font&gt;" style="text;html=1;strokeColor=none;fillColor=none;align=center;verticalAlign=middle;whiteSpace=wrap;rounded=0;" vertex="1" parent="1">
          <mxGeometry x="80" y="720" width="70" height="30" as="geometry" />
        </mxCell>
        <mxCell id="sFz8vuOJbeZ3VAMKLwao-6" style="edgeStyle=orthogonalEdgeStyle;rounded=0;orthogonalLoop=1;jettySize=auto;html=1;" edge="1" parent="1" source="sFz8vuOJbeZ3VAMKLwao-1" target="sFz8vuOJbeZ3VAMKLwao-2">
          <mxGeometry relative="1" as="geometry" />
        </mxCell>
        <mxCell id="sFz8vuOJbeZ3VAMKLwao-12" style="edgeStyle=orthogonalEdgeStyle;rounded=0;orthogonalLoop=1;jettySize=auto;html=1;" edge="1" parent="1" source="sFz8vuOJbeZ3VAMKLwao-1" target="sFz8vuOJbeZ3VAMKLwao-4">
          <mxGeometry relative="1" as="geometry" />
        </mxCell>
        <mxCell id="sFz8vuOJbeZ3VAMKLwao-19" style="edgeStyle=orthogonalEdgeStyle;rounded=0;orthogonalLoop=1;jettySize=auto;html=1;entryX=0.5;entryY=0;entryDx=0;entryDy=0;" edge="1" parent="1" source="sFz8vuOJbeZ3VAMKLwao-1" target="sFz8vuOJbeZ3VAMKLwao-18">
          <mxGeometry relative="1" as="geometry" />
        </mxCell>
        <mxCell id="sFz8vuOJbeZ3VAMKLwao-1" value="User" style="shape=umlActor;verticalLabelPosition=bottom;verticalAlign=top;html=1;outlineConnect=0;" vertex="1" parent="1">
          <mxGeometry x="377" y="120" width="30" height="60" as="geometry" />
        </mxCell>
        <mxCell id="sFz8vuOJbeZ3VAMKLwao-10" style="edgeStyle=orthogonalEdgeStyle;rounded=0;orthogonalLoop=1;jettySize=auto;html=1;" edge="1" parent="1" source="sFz8vuOJbeZ3VAMKLwao-2" target="C67Q7cAnnSUc1JfwZTw3-1">
          <mxGeometry relative="1" as="geometry" />
        </mxCell>
        <mxCell id="sFz8vuOJbeZ3VAMKLwao-2" value="" style="aspect=fixed;sketch=0;html=1;dashed=0;whitespace=wrap;fillColor=#2875E2;strokeColor=#ffffff;points=[[0.005,0.63,0],[0.1,0.2,0],[0.9,0.2,0],[0.5,0,0],[0.995,0.63,0],[0.72,0.99,0],[0.5,1,0],[0.28,0.99,0]];shape=mxgraph.kubernetes.icon2;kubernetesLabel=1;prIcon=api" vertex="1" parent="1">
          <mxGeometry x="210" y="210.95" width="50" height="48" as="geometry" />
        </mxCell>
        <mxCell id="sFz8vuOJbeZ3VAMKLwao-11" style="edgeStyle=orthogonalEdgeStyle;rounded=0;orthogonalLoop=1;jettySize=auto;html=1;entryX=0.5;entryY=0;entryDx=0;entryDy=0;" edge="1" parent="1" source="sFz8vuOJbeZ3VAMKLwao-4" target="C67Q7cAnnSUc1JfwZTw3-2">
          <mxGeometry relative="1" as="geometry" />
        </mxCell>
        <mxCell id="sFz8vuOJbeZ3VAMKLwao-4" value="UI" style="shadow=0;dashed=0;html=1;strokeColor=none;fillColor=#4495D1;labelPosition=center;verticalLabelPosition=bottom;verticalAlign=top;align=center;outlineConnect=0;shape=mxgraph.veeam.2d.web_ui;" vertex="1" parent="1">
          <mxGeometry x="373" y="216.95" width="34" height="36" as="geometry" />
        </mxCell>
        <mxCell id="sFz8vuOJbeZ3VAMKLwao-21" style="edgeStyle=orthogonalEdgeStyle;rounded=0;orthogonalLoop=1;jettySize=auto;html=1;" edge="1" parent="1" source="sFz8vuOJbeZ3VAMKLwao-5" target="sFz8vuOJbeZ3VAMKLwao-14">
          <mxGeometry relative="1" as="geometry" />
        </mxCell>
        <mxCell id="sFz8vuOJbeZ3VAMKLwao-5" value="Notification" style="sketch=0;points=[[0,0,0],[0.25,0,0],[0.5,0,0],[0.75,0,0],[1,0,0],[0,1,0],[0.25,1,0],[0.5,1,0],[0.75,1,0],[1,1,0],[0,0.25,0],[0,0.5,0],[0,0.75,0],[1,0.25,0],[1,0.5,0],[1,0.75,0]];outlineConnect=0;fontColor=#232F3E;fillColor=#E7157B;strokeColor=#ffffff;dashed=0;verticalLabelPosition=bottom;verticalAlign=top;align=center;html=1;fontSize=12;fontStyle=0;aspect=fixed;shape=mxgraph.aws4.resourceIcon;resIcon=mxgraph.aws4.sns;" vertex="1" parent="1">
          <mxGeometry x="615" y="220.91" width="28.09" height="28.09" as="geometry" />
        </mxCell>
        <mxCell id="sFz8vuOJbeZ3VAMKLwao-7" style="edgeStyle=orthogonalEdgeStyle;rounded=0;orthogonalLoop=1;jettySize=auto;html=1;entryX=0.5;entryY=0;entryDx=0;entryDy=0;entryPerimeter=0;" edge="1" parent="1" source="sFz8vuOJbeZ3VAMKLwao-1" target="sFz8vuOJbeZ3VAMKLwao-5">
          <mxGeometry relative="1" as="geometry" />
        </mxCell>
        <mxCell id="sFz8vuOJbeZ3VAMKLwao-17" style="edgeStyle=orthogonalEdgeStyle;rounded=0;orthogonalLoop=1;jettySize=auto;html=1;" edge="1" parent="1" source="sFz8vuOJbeZ3VAMKLwao-14" target="C67Q7cAnnSUc1JfwZTw3-5">
          <mxGeometry relative="1" as="geometry">
            <Array as="points">
              <mxPoint x="638" y="380" />
              <mxPoint x="459" y="380" />
            </Array>
          </mxGeometry>
        </mxCell>
        <mxCell id="sFz8vuOJbeZ3VAMKLwao-14" value="&lt;div&gt;Notification&lt;/div&gt;&lt;div&gt;Service&lt;br&gt;&lt;/div&gt;" style="shape=module;align=left;spacingLeft=20;align=center;verticalAlign=top;whiteSpace=wrap;html=1;fillColor=#d5e8d4;strokeColor=#82b366;" vertex="1" parent="1">
          <mxGeometry x="579.9999999999999" y="310" width="100" height="50" as="geometry" />
        </mxCell>
        <mxCell id="sFz8vuOJbeZ3VAMKLwao-18" value="Events" style="editableCssRules=.*;html=1;shape=image;verticalLabelPosition=bottom;labelBackgroundColor=#ffffff;verticalAlign=top;aspect=fixed;imageAspect=0;image=data:image/svg+xml,PHN2ZyB4bWxucz0iaHR0cDovL3d3dy53My5vcmcvMjAwMC9zdmciIHhtbG5zOnY9Imh0dHBzOi8vdmVjdGEuaW8vbmFubyIgd2lkdGg9IjE4LjMxOTk5OTY5NDgyNDIyIiBoZWlnaHQ9IjIwLjAwMDAwMTkwNzM0ODYzMyIgdmlld0JveD0iMCAwIDE4LjMxOTk5OTY5NDgyNDIyIDIwLjAwMDAwMTkwNzM0ODYzMyI+JiN4YTsJPHN0eWxlIHR5cGU9InRleHQvY3NzIj4mI3hhOwkuc3Qwe2ZpbGw6IzY2OWRmNjt9JiN4YTsJLnN0MXtmaWxsOiM0Mjg1ZjQ7fSYjeGE7CS5zdDJ7ZmlsbDojYWVjYmZhO30mI3hhOwk8L3N0eWxlPiYjeGE7CTxkZWZzPiYjeGE7CQk8ZmlsdGVyIGlkPSJBIiB4PSI0LjY0IiB5PSI0LjE5IiB3aWR0aD0iMTQuNzMiIGhlaWdodD0iMTIuNzYiIGZpbHRlclVuaXRzPSJ1c2VyU3BhY2VPblVzZSIgY29sb3ItaW50ZXJwb2xhdGlvbi1maWx0ZXJzPSJzUkdCIj4mI3hhOwkJCTxmZUZsb29kIGZsb29kLWNvbG9yPSIjZmZmIi8+JiN4YTsJCQk8ZmVCbGVuZCBpbj0iU291cmNlR3JhcGhpYyIvPiYjeGE7CQk8L2ZpbHRlcj4mI3hhOwkJPG1hc2sgaWQ9IkIiIHg9IjQuNjQiIHk9IjQuMTkiIHdpZHRoPSIxNC43MyIgaGVpZ2h0PSIxMi43NiIgbWFza1VuaXRzPSJ1c2VyU3BhY2VPblVzZSI+JiN4YTsJCQk8Y2lyY2xlIGN4PSIxMiIgY3k9IjEyLjIzIiByPSIzLjU4IiBmaWx0ZXI9InVybCgjQSkiLz4mI3hhOwkJPC9tYXNrPiYjeGE7CTwvZGVmcz4mI3hhOwk8ZyBjbGFzcz0ic3QwIj4mI3hhOwkJPGNpcmNsZSBjeD0iMTYuMTMiIGN5PSI2LjIxIiByPSIxLjcyIi8+JiN4YTsJCTxjaXJjbGUgY3g9IjIuMTkiIGN5PSI2LjIxIiByPSIxLjcyIi8+JiN4YTsJCTxjaXJjbGUgY3g9IjkuMTYiIGN5PSIxOC4yOCIgcj0iMS43MiIvPiYjeGE7CTwvZz4mI3hhOwk8ZyBtYXNrPSJ1cmwoI0IpIiB0cmFuc2Zvcm09InRyYW5zbGF0ZSgtMi44NCAtMikiPiYjeGE7CQk8cGF0aCB0cmFuc2Zvcm09Im1hdHJpeCguNSAtLjg3IC44NyAuNSAtNC41OSAyMC41MykiIGQ9Ik0xNC42OSAxMC4yMmgxLjU5djguMDRoLTEuNTl6IiBjbGFzcz0ic3QxIi8+JiN4YTsJCTxwYXRoIHRyYW5zZm9ybT0icm90YXRlKDMzMCA4LjUyMyAxNC4yNDQpIiBkPSJNNC40OSAxMy40NWg4LjA0djEuNTlINC40OXoiIGNsYXNzPSJzdDEiLz4mI3hhOwkJPHBhdGggZD0iTTExLjIgNC4xOWgxLjU5djguMDRIMTEuMnoiIGNsYXNzPSJzdDEiLz4mI3hhOwk8L2c+JiN4YTsJPGcgY2xhc3M9InN0MiI+JiN4YTsJCTxjaXJjbGUgY3g9IjkuMTYiIGN5PSIxMC4yMyIgcj0iMi43OCIvPiYjeGE7CQk8Y2lyY2xlIGN4PSIyLjE5IiBjeT0iMTQuMjUiIHI9IjIuMTkiLz4mI3hhOwkJPGNpcmNsZSBjeD0iMTYuMTMiIGN5PSIxNC4yNSIgcj0iMi4xOSIvPiYjeGE7CQk8Y2lyY2xlIGN4PSI5LjE2IiBjeT0iMi4xOSIgcj0iMi4xOSIvPiYjeGE7CTwvZz4mI3hhOzwvc3ZnPg==;" vertex="1" parent="1">
          <mxGeometry x="501.00000000000006" y="209" width="36" height="40" as="geometry" />
        </mxCell>
        <mxCell id="sFz8vuOJbeZ3VAMKLwao-20" style="edgeStyle=orthogonalEdgeStyle;rounded=0;orthogonalLoop=1;jettySize=auto;html=1;entryX=0.59;entryY=0.06;entryDx=0;entryDy=0;entryPerimeter=0;" edge="1" parent="1" source="sFz8vuOJbeZ3VAMKLwao-18" target="C67Q7cAnnSUc1JfwZTw3-3">
          <mxGeometry relative="1" as="geometry" />
        </mxCell>
        <mxCell id="2voWNjKwJM0PCbqwC2e3-1" value="Messaging Executor" style="outlineConnect=0;dashed=0;verticalLabelPosition=bottom;verticalAlign=top;align=center;html=1;shape=mxgraph.aws3.topic_2;fillColor=#D9A741;gradientColor=none;" vertex="1" parent="1">
          <mxGeometry x="570" y="792" width="60" height="37" as="geometry" />
        </mxCell>
      </root>
    </mxGraphModel>
  </diagram>
  <diagram id="1pOjMZKDJOkKpVnyfdA_" name="events">
    <mxGraphModel dx="1239" dy="821" grid="1" gridSize="10" guides="1" tooltips="1" connect="1" arrows="1" fold="1" page="1" pageScale="1" pageWidth="850" pageHeight="1100" math="0" shadow="0">
      <root>
        <mxCell id="0" />
        <mxCell id="1" parent="0" />
        <mxCell id="ijIJL5N4Xj5LpbKPWZMA-1" value="" style="rounded=0;whiteSpace=wrap;html=1;" vertex="1" parent="1">
          <mxGeometry x="30" y="10" width="680" height="340" as="geometry" />
        </mxCell>
        <mxCell id="ijIJL5N4Xj5LpbKPWZMA-2" value="JobDefinitionLifecycleEvent" style="html=1;whiteSpace=wrap;fillColor=#dae8fc;strokeColor=#6c8ebf;" vertex="1" parent="1">
          <mxGeometry x="80" y="170" width="160" height="50" as="geometry" />
        </mxCell>
        <mxCell id="ijIJL5N4Xj5LpbKPWZMA-3" value="RecentlyCompletedJobsEvent" style="html=1;whiteSpace=wrap;fillColor=#dae8fc;strokeColor=#6c8ebf;" vertex="1" parent="1">
          <mxGeometry x="260" y="170" width="170" height="50" as="geometry" />
        </mxCell>
        <mxCell id="ijIJL5N4Xj5LpbKPWZMA-11" value="JobExecutionLaunchEvent" style="html=1;whiteSpace=wrap;fillColor=#dae8fc;strokeColor=#6c8ebf;" vertex="1" parent="1">
          <mxGeometry x="250" y="100" width="160" height="50" as="geometry" />
        </mxCell>
        <mxCell id="ijIJL5N4Xj5LpbKPWZMA-15" value="ContainerLifecycleEvent" style="html=1;whiteSpace=wrap;fillColor=#dae8fc;strokeColor=#6c8ebf;" vertex="1" parent="1">
          <mxGeometry x="80" y="100" width="140" height="50" as="geometry" />
        </mxCell>
        <mxCell id="ijIJL5N4Xj5LpbKPWZMA-19" value="JobRequestLifecycleEvent" style="html=1;whiteSpace=wrap;fillColor=#dae8fc;strokeColor=#6c8ebf;" vertex="1" parent="1">
          <mxGeometry x="440" y="100" width="165" height="50" as="geometry" />
        </mxCell>
        <mxCell id="ijIJL5N4Xj5LpbKPWZMA-23" value="JobSchedulerLeaderEvent" style="html=1;whiteSpace=wrap;fillColor=#d0cee2;strokeColor=#56517e;" vertex="1" parent="1">
          <mxGeometry x="470" y="250" width="160" height="50" as="geometry" />
        </mxCell>
        <mxCell id="ijIJL5N4Xj5LpbKPWZMA-30" value="" style="edgeStyle=orthogonalEdgeStyle;rounded=0;orthogonalLoop=1;jettySize=auto;html=1;" edge="1" parent="1">
          <mxGeometry relative="1" as="geometry">
            <mxPoint x="465" y="490" as="sourcePoint" />
            <mxPoint x="465" y="450" as="targetPoint" />
          </mxGeometry>
        </mxCell>
        <mxCell id="ijIJL5N4Xj5LpbKPWZMA-36" value="HealthErrorEvent" style="html=1;whiteSpace=wrap;fillColor=#b0e3e6;strokeColor=#0e8088;" vertex="1" parent="1">
          <mxGeometry x="210" y="250" width="110" height="50" as="geometry" />
        </mxCell>
        <mxCell id="ijIJL5N4Xj5LpbKPWZMA-37" value="ErrorEvent" style="html=1;whiteSpace=wrap;fillColor=#b0e3e6;strokeColor=#0e8088;" vertex="1" parent="1">
          <mxGeometry x="80" y="250" width="110" height="50" as="geometry" />
        </mxCell>
        <mxCell id="ijIJL5N4Xj5LpbKPWZMA-41" value="&lt;h1&gt;Events Class Diagram&lt;br&gt;&lt;/h1&gt;" style="text;html=1;strokeColor=none;fillColor=none;spacing=5;spacingTop=-20;whiteSpace=wrap;overflow=hidden;rounded=0;" vertex="1" parent="1">
          <mxGeometry x="220" y="40" width="280" height="40" as="geometry" />
        </mxCell>
        <mxCell id="ijIJL5N4Xj5LpbKPWZMA-46" value="LogEvent" style="html=1;whiteSpace=wrap;fillColor=#b0e3e6;strokeColor=#0e8088;" vertex="1" parent="1">
          <mxGeometry x="340" y="250" width="110" height="50" as="geometry" />
        </mxCell>
        <mxCell id="ijIJL5N4Xj5LpbKPWZMA-48" value="TaskExecutionLifecycleEvent" style="html=1;whiteSpace=wrap;fillColor=#dae8fc;strokeColor=#6c8ebf;" vertex="1" parent="1">
          <mxGeometry x="450" y="170" width="170" height="50" as="geometry" />
        </mxCell>
      </root>
    </mxGraphModel>
  </diagram>
  <diagram id="CWE__Lbemb8yYuzUkjbQ" name="pipes">
    <mxGraphModel dx="1239" dy="821" grid="1" gridSize="10" guides="1" tooltips="1" connect="1" arrows="1" fold="1" page="1" pageScale="1" pageWidth="850" pageHeight="1100" math="0" shadow="0">
      <root>
        <mxCell id="0" />
        <mxCell id="1" parent="0" />
        <mxCell id="oy4zGsFOszotf00u4jtp-17" value="" style="rounded=0;whiteSpace=wrap;html=1;" vertex="1" parent="1">
          <mxGeometry x="10" y="20" width="790" height="620" as="geometry" />
        </mxCell>
        <mxCell id="oy4zGsFOszotf00u4jtp-10" style="edgeStyle=orthogonalEdgeStyle;rounded=0;orthogonalLoop=1;jettySize=auto;html=1;" edge="1" parent="1" source="WAoZMICk28o61b7NH-Ke-1" target="WAoZMICk28o61b7NH-Ke-2">
          <mxGeometry relative="1" as="geometry" />
        </mxCell>
        <mxCell id="oy4zGsFOszotf00u4jtp-11" style="edgeStyle=orthogonalEdgeStyle;rounded=0;orthogonalLoop=1;jettySize=auto;html=1;" edge="1" parent="1" source="WAoZMICk28o61b7NH-Ke-1" target="WAoZMICk28o61b7NH-Ke-5">
          <mxGeometry relative="1" as="geometry" />
        </mxCell>
        <mxCell id="oy4zGsFOszotf00u4jtp-12" style="edgeStyle=orthogonalEdgeStyle;rounded=0;orthogonalLoop=1;jettySize=auto;html=1;" edge="1" parent="1" source="WAoZMICk28o61b7NH-Ke-1" target="WAoZMICk28o61b7NH-Ke-9">
          <mxGeometry relative="1" as="geometry" />
        </mxCell>
        <mxCell id="WAoZMICk28o61b7NH-Ke-1" value="Job Definition" style="sketch=0;points=[[0,0,0],[0.25,0,0],[0.5,0,0],[0.75,0,0],[1,0,0],[0,1,0],[0.25,1,0],[0.5,1,0],[0.75,1,0],[1,1,0],[0,0.25,0],[0,0.5,0],[0,0.75,0],[1,0.25,0],[1,0.5,0],[1,0.75,0]];outlineConnect=0;fontColor=#232F3E;fillColor=#E7157B;strokeColor=#ffffff;dashed=0;verticalLabelPosition=bottom;verticalAlign=top;align=center;html=1;fontSize=12;fontStyle=0;aspect=fixed;shape=mxgraph.aws4.resourceIcon;resIcon=mxgraph.aws4.express_workflow;" vertex="1" parent="1">
          <mxGeometry x="291" y="110" width="78" height="78" as="geometry" />
        </mxCell>
        <mxCell id="WAoZMICk28o61b7NH-Ke-4" style="edgeStyle=orthogonalEdgeStyle;rounded=0;orthogonalLoop=1;jettySize=auto;html=1;" edge="1" parent="1" source="WAoZMICk28o61b7NH-Ke-2" target="WAoZMICk28o61b7NH-Ke-3">
          <mxGeometry relative="1" as="geometry" />
        </mxCell>
        <mxCell id="oy4zGsFOszotf00u4jtp-2" style="edgeStyle=orthogonalEdgeStyle;rounded=0;orthogonalLoop=1;jettySize=auto;html=1;" edge="1" parent="1" source="WAoZMICk28o61b7NH-Ke-2" target="A157sES3waU9D3N4IIhx-2">
          <mxGeometry relative="1" as="geometry" />
        </mxCell>
        <mxCell id="oy4zGsFOszotf00u4jtp-4" style="edgeStyle=orthogonalEdgeStyle;rounded=0;orthogonalLoop=1;jettySize=auto;html=1;entryX=0.5;entryY=0;entryDx=0;entryDy=0;" edge="1" parent="1" source="WAoZMICk28o61b7NH-Ke-2" target="A157sES3waU9D3N4IIhx-6">
          <mxGeometry relative="1" as="geometry">
            <Array as="points">
              <mxPoint x="130" y="410" />
              <mxPoint x="309" y="410" />
            </Array>
          </mxGeometry>
        </mxCell>
        <mxCell id="oy4zGsFOszotf00u4jtp-7" style="edgeStyle=orthogonalEdgeStyle;rounded=0;orthogonalLoop=1;jettySize=auto;html=1;" edge="1" parent="1" source="WAoZMICk28o61b7NH-Ke-2" target="A157sES3waU9D3N4IIhx-9">
          <mxGeometry relative="1" as="geometry">
            <Array as="points">
              <mxPoint x="130" y="410" />
              <mxPoint x="520" y="410" />
            </Array>
          </mxGeometry>
        </mxCell>
        <mxCell id="WAoZMICk28o61b7NH-Ke-2" value="Task-A" style="outlineConnect=0;dashed=0;verticalLabelPosition=bottom;verticalAlign=top;align=center;html=1;shape=mxgraph.aws3.worker;fillColor=#D9A741;gradientColor=none;" vertex="1" parent="1">
          <mxGeometry x="100" y="260" width="60" height="63" as="geometry" />
        </mxCell>
        <mxCell id="WAoZMICk28o61b7NH-Ke-3" value="Pipe" style="sketch=0;outlineConnect=0;fontColor=#232F3E;gradientColor=none;fillColor=#7AA116;strokeColor=none;dashed=0;verticalLabelPosition=bottom;verticalAlign=top;align=center;html=1;fontSize=12;fontStyle=0;aspect=fixed;pointerEvents=1;shape=mxgraph.aws4.iot_analytics_pipeline;" vertex="1" parent="1">
          <mxGeometry x="190" y="270.5" width="78" height="42" as="geometry" />
        </mxCell>
        <mxCell id="WAoZMICk28o61b7NH-Ke-8" style="edgeStyle=orthogonalEdgeStyle;rounded=0;orthogonalLoop=1;jettySize=auto;html=1;" edge="1" parent="1" source="WAoZMICk28o61b7NH-Ke-5" target="WAoZMICk28o61b7NH-Ke-7">
          <mxGeometry relative="1" as="geometry" />
        </mxCell>
        <mxCell id="WAoZMICk28o61b7NH-Ke-5" value="Task-B" style="outlineConnect=0;dashed=0;verticalLabelPosition=bottom;verticalAlign=top;align=center;html=1;shape=mxgraph.aws3.worker;fillColor=#D9A741;gradientColor=none;" vertex="1" parent="1">
          <mxGeometry x="300" y="260" width="60" height="63" as="geometry" />
        </mxCell>
        <mxCell id="WAoZMICk28o61b7NH-Ke-6" style="edgeStyle=orthogonalEdgeStyle;rounded=0;orthogonalLoop=1;jettySize=auto;html=1;entryX=0;entryY=0.5;entryDx=0;entryDy=0;entryPerimeter=0;" edge="1" parent="1" source="WAoZMICk28o61b7NH-Ke-3" target="WAoZMICk28o61b7NH-Ke-5">
          <mxGeometry relative="1" as="geometry" />
        </mxCell>
        <mxCell id="WAoZMICk28o61b7NH-Ke-7" value="Pipe" style="sketch=0;outlineConnect=0;fontColor=#232F3E;gradientColor=none;fillColor=#7AA116;strokeColor=none;dashed=0;verticalLabelPosition=bottom;verticalAlign=top;align=center;html=1;fontSize=12;fontStyle=0;aspect=fixed;pointerEvents=1;shape=mxgraph.aws4.iot_analytics_pipeline;" vertex="1" parent="1">
          <mxGeometry x="400" y="270.5" width="78" height="42" as="geometry" />
        </mxCell>
        <mxCell id="oy4zGsFOszotf00u4jtp-16" style="edgeStyle=orthogonalEdgeStyle;rounded=0;orthogonalLoop=1;jettySize=auto;html=1;" edge="1" parent="1" source="WAoZMICk28o61b7NH-Ke-9" target="vMZRk_lSfjceqXN9_-Ob-1">
          <mxGeometry relative="1" as="geometry">
            <Array as="points">
              <mxPoint x="540" y="490" />
            </Array>
          </mxGeometry>
        </mxCell>
        <mxCell id="WAoZMICk28o61b7NH-Ke-9" value="Task-C" style="outlineConnect=0;dashed=0;verticalLabelPosition=bottom;verticalAlign=top;align=center;html=1;shape=mxgraph.aws3.worker;fillColor=#D9A741;gradientColor=none;" vertex="1" parent="1">
          <mxGeometry x="510" y="260" width="60" height="63" as="geometry" />
        </mxCell>
        <mxCell id="WAoZMICk28o61b7NH-Ke-10" style="edgeStyle=orthogonalEdgeStyle;rounded=0;orthogonalLoop=1;jettySize=auto;html=1;entryX=0;entryY=0.5;entryDx=0;entryDy=0;entryPerimeter=0;" edge="1" parent="1" source="WAoZMICk28o61b7NH-Ke-7" target="WAoZMICk28o61b7NH-Ke-9">
          <mxGeometry relative="1" as="geometry" />
        </mxCell>
        <mxCell id="A157sES3waU9D3N4IIhx-2" value="Docker Executor" style="image;sketch=0;aspect=fixed;html=1;points=[];align=center;fontSize=12;image=img/lib/mscae/Docker.svg;" vertex="1" parent="1">
          <mxGeometry x="60" y="497" width="50" height="41" as="geometry" />
        </mxCell>
        <mxCell id="A157sES3waU9D3N4IIhx-3" value="" style="aspect=fixed;sketch=0;html=1;dashed=0;whitespace=wrap;fillColor=#2875E2;strokeColor=#ffffff;points=[[0.005,0.63,0],[0.1,0.2,0],[0.9,0.2,0],[0.5,0,0],[0.995,0.63,0],[0.72,0.99,0],[0.5,1,0],[0.28,0.99,0]];shape=mxgraph.kubernetes.icon2;prIcon=api" vertex="1" parent="1">
          <mxGeometry x="185" y="490" width="50" height="48" as="geometry" />
        </mxCell>
        <mxCell id="A157sES3waU9D3N4IIhx-4" value="Kubernetes Executor" style="text;html=1;strokeColor=none;fillColor=none;align=center;verticalAlign=middle;whiteSpace=wrap;rounded=0;" vertex="1" parent="1">
          <mxGeometry x="180" y="542" width="60" height="30" as="geometry" />
        </mxCell>
        <mxCell id="A157sES3waU9D3N4IIhx-6" value="Shell Executor" style="sketch=0;html=1;verticalAlign=top;labelPosition=center;verticalLabelPosition=bottom;align=center;spacingTop=-6;fontSize=11;fontStyle=1;fontColor=#999999;shape=image;aspect=fixed;imageAspect=0;image=data:image/svg+xml,PHN2ZyB4bWxucz0iaHR0cDovL3d3dy53My5vcmcvMjAwMC9zdmciIHhtbG5zOnY9Imh0dHBzOi8vdmVjdGEuaW8vbmFubyIgd2lkdGg9IjM3NS44NTAyODQ2NDQwODg3MyIgaGVpZ2h0PSIzNTMuODA1Nzc3NDY3NzY5NyIgdmlld0JveD0iMC4yNTU5OTk1NjUxMjQ1MTE3IDAuNDI2MDAwMDI4ODQ4NjQ4MDcgOTkuNDQzNjU2OTIxMzg2NzIgOTMuNjExMDAwMDYxMDM1MTYiPiYjeGE7PHN0eWxlIHR5cGU9InRleHQvY3NzIj4mI3hhOwkuc3Qwe2ZpbGw6I2FlY2JmYTt9JiN4YTsJLnN0MXtmaWxsOiNmZmY7fSYjeGE7CS5zdDJ7ZmlsbDojNDI4NWY0O30mI3hhOwkuc3Qze2ZpbGw6IzY2OWRmNjt9JiN4YTs8L3N0eWxlPiYjeGE7CTxwYXRoIGNsYXNzPSJzdDAiIGQ9Ik04LjU0NCA3MS45MjhjLTQuODE1IDAtOC4yODgtMy44ODktOC4yODgtOC4zMjdWNy45ODNDLjI1NyA0LjY1IDQuMDcyLjQyNiA3LjQ5NS40MjZoODMuOTUyYzQuNzA1IDAgOC4yNTIgMy4zNzkgOC4yNTIgOC4xNzR2NTEuNDk1Yy4wNDcgNy41OTUtMi40NyAxMS44MzQtOS4wMTIgMTEuODM0eiIvPiYjeGE7CTxwYXRoIGNsYXNzPSJzdDEiIGQ9Ik0yOC4wNDYgNTcuMTV2LTkuOTIybDMxLjg4Mi0xMy44OTEtMzEuODgyLTEzLjY5MlY5LjI2MWw0NS44MDYgMTguOTg0djkuNzl6bTI1LjIzNSAzLjY3MXYtMTAuNTVoMjAuMDc1djEwLjU1eiIvPiYjeGE7CTxwYXRoIGNsYXNzPSJzdDIiIGQ9Ik00MC4wMyA4My41MjRWNzEuOTI4aDIwLjI5NXYxMS41OTZ6Ii8+JiN4YTsJPHBhdGggY2xhc3M9InN0MyIgZD0iTTY5Ljg3MyA4My41MjR2MTAuNTEzSDMwLjFWODMuNTI0eiIvPiYjeGE7PC9zdmc+;" vertex="1" parent="1">
          <mxGeometry x="288" y="505" width="42" height="40" as="geometry" />
        </mxCell>
        <mxCell id="A157sES3waU9D3N4IIhx-7" value="HTTP Executor" style="outlineConnect=0;dashed=0;verticalLabelPosition=bottom;verticalAlign=top;align=center;html=1;shape=mxgraph.aws3.http_protocol;fillColor=#5294CF;gradientColor=none;" vertex="1" parent="1">
          <mxGeometry x="390" y="494" width="50" height="51" as="geometry" />
        </mxCell>
        <mxCell id="A157sES3waU9D3N4IIhx-9" value="Messaging Executor" style="outlineConnect=0;dashed=0;verticalLabelPosition=bottom;verticalAlign=top;align=center;html=1;shape=mxgraph.aws3.topic_2;fillColor=#D9A741;gradientColor=none;" vertex="1" parent="1">
          <mxGeometry x="490" y="506.5" width="60" height="37" as="geometry" />
        </mxCell>
        <mxCell id="vMZRk_lSfjceqXN9_-Ob-1" value="Object Store (Artifacts)" style="sketch=0;outlineConnect=0;strokeColor=#9673a6;fillColor=#e1d5e7;dashed=0;verticalLabelPosition=bottom;verticalAlign=top;align=center;html=1;fontSize=12;fontStyle=0;aspect=fixed;shape=mxgraph.aws4.resourceIcon;resIcon=mxgraph.aws4.parameter_store;" vertex="1" parent="1">
          <mxGeometry x="660" y="460" width="50" height="50" as="geometry" />
        </mxCell>
        <mxCell id="CWXeh8kC4qfS720U9bvJ-1" value="Database" style="shape=cylinder3;whiteSpace=wrap;html=1;boundedLbl=1;backgroundOutline=1;size=15;fillColor=#e1d5e7;strokeColor=#9673a6;" vertex="1" parent="1">
          <mxGeometry x="650" y="251.5" width="60" height="80" as="geometry" />
        </mxCell>
        <mxCell id="oy4zGsFOszotf00u4jtp-1" value="Messaging Middleware" style="strokeWidth=1;outlineConnect=0;dashed=0;align=center;html=1;fontSize=8;shape=mxgraph.eip.messageChannel;verticalLabelPosition=bottom;labelBackgroundColor=#ffffff;verticalAlign=top;" vertex="1" parent="1">
          <mxGeometry x="630" y="400" width="100" height="20" as="geometry" />
        </mxCell>
        <mxCell id="oy4zGsFOszotf00u4jtp-3" style="edgeStyle=orthogonalEdgeStyle;rounded=0;orthogonalLoop=1;jettySize=auto;html=1;entryX=0.5;entryY=0;entryDx=0;entryDy=0;entryPerimeter=0;" edge="1" parent="1" source="WAoZMICk28o61b7NH-Ke-2" target="A157sES3waU9D3N4IIhx-3">
          <mxGeometry relative="1" as="geometry">
            <Array as="points">
              <mxPoint x="130" y="410" />
              <mxPoint x="215" y="410" />
            </Array>
          </mxGeometry>
        </mxCell>
        <mxCell id="oy4zGsFOszotf00u4jtp-5" style="edgeStyle=orthogonalEdgeStyle;rounded=0;orthogonalLoop=1;jettySize=auto;html=1;entryX=0.5;entryY=0;entryDx=0;entryDy=0;entryPerimeter=0;" edge="1" parent="1" source="WAoZMICk28o61b7NH-Ke-2" target="A157sES3waU9D3N4IIhx-7">
          <mxGeometry relative="1" as="geometry">
            <Array as="points">
              <mxPoint x="130" y="410" />
              <mxPoint x="415" y="410" />
            </Array>
          </mxGeometry>
        </mxCell>
        <mxCell id="oy4zGsFOszotf00u4jtp-8" style="edgeStyle=orthogonalEdgeStyle;rounded=0;orthogonalLoop=1;jettySize=auto;html=1;entryX=0.5;entryY=0.583;entryDx=0;entryDy=0;entryPerimeter=0;" edge="1" parent="1" source="WAoZMICk28o61b7NH-Ke-5" target="A157sES3waU9D3N4IIhx-3">
          <mxGeometry relative="1" as="geometry">
            <Array as="points">
              <mxPoint x="330" y="410" />
              <mxPoint x="215" y="410" />
            </Array>
          </mxGeometry>
        </mxCell>
        <mxCell id="oy4zGsFOszotf00u4jtp-9" style="edgeStyle=orthogonalEdgeStyle;rounded=0;orthogonalLoop=1;jettySize=auto;html=1;entryX=0.5;entryY=0;entryDx=0;entryDy=0;entryPerimeter=0;" edge="1" parent="1" source="WAoZMICk28o61b7NH-Ke-9" target="A157sES3waU9D3N4IIhx-9">
          <mxGeometry relative="1" as="geometry">
            <Array as="points">
              <mxPoint x="540" y="410" />
              <mxPoint x="520" y="410" />
            </Array>
          </mxGeometry>
        </mxCell>
        <mxCell id="oy4zGsFOszotf00u4jtp-14" style="edgeStyle=orthogonalEdgeStyle;rounded=0;orthogonalLoop=1;jettySize=auto;html=1;entryX=0;entryY=0.5;entryDx=2.7;entryDy=0;entryPerimeter=0;" edge="1" parent="1" source="WAoZMICk28o61b7NH-Ke-9" target="oy4zGsFOszotf00u4jtp-1">
          <mxGeometry relative="1" as="geometry">
            <Array as="points">
              <mxPoint x="540" y="410" />
              <mxPoint x="633" y="410" />
            </Array>
          </mxGeometry>
        </mxCell>
        <mxCell id="oy4zGsFOszotf00u4jtp-15" style="edgeStyle=orthogonalEdgeStyle;rounded=0;orthogonalLoop=1;jettySize=auto;html=1;entryX=0;entryY=0.5;entryDx=0;entryDy=0;entryPerimeter=0;" edge="1" parent="1" source="WAoZMICk28o61b7NH-Ke-9" target="CWXeh8kC4qfS720U9bvJ-1">
          <mxGeometry relative="1" as="geometry" />
        </mxCell>
        <mxCell id="y1R2xf_Biy7DEdvej2F_-1" value="&lt;h1&gt;Data Pipeline Diagram&lt;br&gt;&lt;/h1&gt;" style="text;html=1;strokeColor=none;fillColor=none;spacing=5;spacingTop=-20;whiteSpace=wrap;overflow=hidden;rounded=0;" vertex="1" parent="1">
          <mxGeometry x="230" y="50" width="290" height="40" as="geometry" />
        </mxCell>
      </root>
    </mxGraphModel>
  </diagram>
</mxfile>
